<?xml version="1.0" standalone="no"?>
<!DOCTYPE svg PUBLIC "-//W3C//DTD SVG 1.1//EN" "http://www.w3.org/Graphics/SVG/1.1/DTD/svg11.dtd" >
<svg xmlns="http://www.w3.org/2000/svg" xmlns:xlink="http://www.w3.org/1999/xlink" version="1.1">
<metadata>
Created by FontForge 20160405 at Tue Sep  4 22:59:46 2018
 By www-data
Open 24 Display st | this font is an original design of southype | free for personal use.
</metadata>
<defs>
<font id="Open24DisplaySt" horiz-adv-x="905" >
  <font-face 
    font-family="Open 24 Display St"
    font-weight="400"
    font-stretch="normal"
    units-per-em="2048"
    panose-1="2 0 5 0 0 0 0 0 0 0"
    ascent="1638"
    descent="-410"
    x-height="1428"
    cap-height="1428"
    bbox="-315 -270 1980 2115"
    underline-thickness="150"
    underline-position="-442"
    unicode-range="U+0020-F002"
  />
<missing-glyph horiz-adv-x="1024" 
d="M100 0v1434h824v-1434h-824zM150 50h724v1334h-724v-1334zM325 1148q31 28 58 43q53 30 112 30q92 0 148 -47.5t56 -127.5q0 -49 -23 -98.5t-87 -129.5q-63 -80 -99 -132t-36 -99q0 -38 24 -133h-32q-35 97 -35 148q0 76 81.5 218t81.5 217q0 57 -33 90t-91 33
q-38 0 -69 -17q-26 -15 -56 -40v45zM389 334l57 58q11 10 20 10q10 0 22 -11l56 -60q9 -11 9 -20q0 -11 -10 -22l-56 -62q-14 -14 -21 -14q-11 0 -20 10l-61 71q-7 9 -7 18q0 10 11 22z" />
    <glyph glyph-name=".notdef" horiz-adv-x="1024" 
d="M100 0v1434h824v-1434h-824zM150 50h724v1334h-724v-1334zM325 1148q31 28 58 43q53 30 112 30q92 0 148 -47.5t56 -127.5q0 -49 -23 -98.5t-87 -129.5q-63 -80 -99 -132t-36 -99q0 -38 24 -133h-32q-35 97 -35 148q0 76 81.5 218t81.5 217q0 57 -33 90t-91 33
q-38 0 -69 -17q-26 -15 -56 -40v45zM389 334l57 58q11 10 20 10q10 0 22 -11l56 -60q9 -11 9 -20q0 -11 -10 -22l-56 -62q-14 -14 -21 -14q-11 0 -20 10l-61 71q-7 9 -7 18q0 10 11 22z" />
    <glyph glyph-name=".null" horiz-adv-x="0" 
 />
    <glyph glyph-name="nonmarkingreturn" horiz-adv-x="508" 
 />
    <glyph glyph-name="space" unicode=" " 
 />
    <glyph glyph-name="space" unicode="&#xa0;" 
 />
    <glyph glyph-name="exclam" unicode="!" horiz-adv-x="311" 
d="M68 1424q5 0 120 -120v-324q0 -5 -120 -120q-5 0 -40 40v484q0 5 40 40zM148 888q5 0 40 -40v-480q0 -5 -40 -40q-5 0 -120 120v320q0 5 120 120zM64 240h84q8 -1 8 -8v-4q-44 -56 -64 -56h-8q-21 0 -48 36v4q0 6 28 28zM176 200h4q5 0 36 -36v-84q0 -6 -12 -12h-4
q-52 43 -52 48v36q0 32 28 48zM16 176q6 0 52 -52v-52q-24 -24 -24 -32h-8q-5 0 -36 36v84q0 6 16 16zM112 68h20q25 0 52 -36q0 -5 -32 -32h-84q-8 0 -8 8v4q0 10 52 56z" />
    <glyph glyph-name="quotedbl" unicode="&#x22;" horiz-adv-x="406" 
d="M20 2115q5 0 60 -60v-212q0 -5 -60 -60q-5 0 -20 20v292q0 5 20 20zM221 2115q5 0 60 -60v-212q0 -5 -60 -60q-5 0 -20 20v292q0 5 20 20z" />
    <glyph glyph-name="numbersign" unicode="#" horiz-adv-x="2104" 
d="M1068 1428q16 -36 16 -56q-205 -388 -232 -420q-7 0 -152 -48q-16 30 -16 60q207 388 228 416q147 48 156 48zM1736 1428q16 -36 16 -56q-205 -388 -232 -420q-7 0 -152 -48q-16 30 -16 60q207 388 228 416q147 48 156 48zM260 1012h328q5 0 40 -40q0 -5 -120 -120h-168
q-5 0 -120 120q0 5 40 40zM956 996h328q5 0 40 -40q0 -5 -120 -120h-168q-5 0 -120 120q0 5 40 40zM1612 996h328q5 0 40 -40q0 -5 -120 -120h-168q-5 0 -120 120q0 5 40 40zM824 928q16 -30 16 -60q-207 -388 -228 -416q-147 -48 -156 -48q-16 36 -16 56q205 388 232 420
q7 0 152 48zM1492 928q16 -30 16 -60q-207 -388 -228 -416q-147 -48 -156 -48q-16 36 -16 56q205 388 232 420q7 0 152 48zM120 580h168q5 0 120 -120q0 -5 -40 -40h-328q-5 0 -40 40q0 5 120 120zM804 580h168q5 0 120 -120q0 -5 -40 -40h-328q-5 0 -40 40q0 5 120 120z
M1472 580h168q5 0 120 -120q0 -5 -40 -40h-328q-5 0 -40 40q0 5 120 120zM580 420q9 -13 16 -56q-181 -321 -208 -352q-37 -12 -48 -12q-7 9 -48 160q114 214 136 220q145 40 152 40zM1248 420q9 -13 16 -56q-181 -321 -208 -352q-37 -12 -48 -12q-7 9 -48 160
q114 214 136 220q145 40 152 40z" />
    <glyph glyph-name="dollar" unicode="$" horiz-adv-x="907" 
d="M320 1714q5 0 120 -120v-104q0 -8 -8 -8h-144q-8 0 -8 8v184q0 5 40 40zM120 1426h568q5 0 40 -40q0 -5 -120 -120h-408q-5 0 -120 120q0 5 40 40zM40 1382q5 0 120 -120v-408q0 -5 -120 -120q-5 0 -40 40v568q0 5 40 40zM296 1234h128q8 -1 8 -8v-368q0 -8 -8 -8h-128
q-8 0 -8 8v368q1 8 8 8zM160 798h472q5 0 80 -80v-4q0 -5 -80 -80h-472q-5 0 -80 80v4q0 5 80 80zM764 690q5 0 40 -40v-568q0 -5 -40 -40q-5 0 -120 120v408q0 5 120 120zM296 590h128q8 -1 8 -8v-368q0 -8 -8 -8h-128q-8 0 -8 8v368q1 8 8 8zM196 158h408q5 0 120 -120
q0 -5 -40 -40h-568q-5 0 -40 40q0 5 120 120zM288 -38h144q8 -1 8 -8v-184q0 -5 -40 -40q-5 0 -120 120v104q1 8 8 8z" />
    <glyph glyph-name="percent" unicode="%" horiz-adv-x="907" 
d="M88 1428h108q5 0 20 -20v-4q0 -5 -64 -64h-108q-5 0 -20 20v4q0 5 64 64zM788 1428q16 -36 16 -56q-205 -388 -232 -420q-7 0 -152 -48q-16 30 -16 60q207 388 228 416q147 48 156 48zM220 1388h4q5 0 64 -64v-108q0 -5 -20 -20h-4q-5 0 -64 64v108q0 5 20 20zM20 1340h4
q5 0 64 -64v-108q0 -5 -20 -20h-4q-5 0 -64 64v108q0 5 20 20zM136 1196h108q5 0 20 -20v-4q0 -5 -64 -64h-108q-5 0 -20 20v4q0 5 64 64zM544 928q16 -30 16 -60q-207 -388 -228 -416q-147 -48 -156 -48q-16 36 -16 56q205 388 232 420q7 0 152 48zM300 420q9 -13 16 -56
q-181 -321 -208 -352q-37 -12 -48 -12q-7 9 -48 160q114 214 136 220q145 40 152 40zM604 320h108q5 0 20 -20v-4q0 -5 -64 -64h-108q-5 0 -20 20v4q0 5 64 64zM736 280h4q5 0 64 -64v-108q0 -5 -20 -20h-4q-5 0 -64 64v108q0 5 20 20zM536 232h4q5 0 64 -64v-108
q0 -5 -20 -20h-4q-5 0 -64 64v108q0 5 20 20zM652 88h108q5 0 20 -20v-4q0 -5 -64 -64h-108q-5 0 -20 20v4q0 5 64 64z" />
    <glyph glyph-name="ampersand" unicode="&#x26;" horiz-adv-x="1267" 
d="M200 1436h328q5 0 40 -40q0 -5 -120 -120h-168q-5 0 -120 120q0 5 40 40zM608 1364q5 0 40 -40v-328q0 -5 -40 -40q-5 0 -120 120v168q0 5 120 120zM156 1340q5 0 120 -120v-168q0 -5 -120 -120q-5 0 -40 40v328q0 5 40 40zM308 1020h168q5 0 120 -120q0 -5 -40 -40h-328
q-5 0 -40 40q0 5 120 120zM84 820h568q5 0 40 -40q0 -5 -120 -120h-408q-5 0 -120 120q0 5 40 40zM716 748q5 0 40 -40v-172l40 36h328q5 0 40 -40q0 -5 -120 -120h-168l-120 116v-324l120 116h168q5 0 120 -120q0 -5 -40 -40h-328l-40 36v-56q0 -5 -40 -40q-5 0 -120 120
v408q0 5 120 120zM40 736q5 0 120 -120v-408q0 -5 -120 -120q-5 0 -40 40v568q0 5 40 40zM164 160h408q5 0 120 -120q0 -5 -40 -40h-568q-5 0 -40 40q0 5 120 120z" />
    <glyph glyph-name="quotesingle" unicode="'" horiz-adv-x="205" 
d="M20 2115q5 0 60 -60v-212q0 -5 -60 -60q-5 0 -20 20v292q0 5 20 20z" />
    <glyph glyph-name="parenleft" unicode="(" horiz-adv-x="599" 
d="M460 1332q-79 -84 -84 -84h-200q-84 79 -84 84q75 80 80 80h208q80 -75 80 -80zM164 1172v-392q-119 -124 -124 -124q-40 35 -40 40v568q35 40 40 40q124 -109 124 -132zM160 512v-312q-22 -22 -120 -92q-27 14 -40 32v432q13 18 40 32q98 -70 120 -92zM460 80
q-75 -80 -80 -80h-208q-80 75 -80 80q79 84 84 84h200q84 -79 84 -84z" />
    <glyph glyph-name="parenright" unicode=")" horiz-adv-x="604" 
d="M80 1412h208q5 0 80 -80q0 -5 -84 -84h-200q-5 0 -84 84q0 5 80 80zM420 1304q5 0 40 -40v-568q0 -5 -40 -40q-5 0 -124 124v392q0 23 124 132zM420 604q27 -14 40 -32v-432q-13 -18 -40 -32q-98 70 -120 92v312q22 22 120 92zM84 164h200q5 0 84 -84q0 -5 -80 -80h-208
q-5 0 -80 80q0 5 84 84z" />
    <glyph glyph-name="asterisk" unicode="*" horiz-adv-x="741" 
d="M312 1275q4 0 93 -93v-155q0 -6 -6 -6h-96q-7 0 -7 6v233q0 4 16 15zM520 1198h37q6 -1 6 -7v-124q-38 -46 -56 -46h-65q-6 0 -6 6v87q1 4 84 84zM86 1154h124q4 0 55 -56v-71q0 -6 -6 -6h-80q-18 0 -100 90v37q1 6 7 6zM89 990h170q6 -1 6 -6v-97q0 -6 -6 -6h-223
q-17 0 -31 22v3q1 5 84 84zM303 990h96q6 -1 6 -6v-97q0 -6 -6 -6h-96q-7 0 -7 6v97q1 6 7 6zM442 990h217q5 0 22 -22v-3q-75 -84 -93 -84h-146q-6 0 -6 6v97q1 6 6 6zM172 850h87q6 -1 6 -6v-74q0 -4 -99 -100h-37q-6 0 -6 7v124q0 4 49 49zM303 850h96q6 -1 6 -6v-217
q0 -4 -31 -31q-4 0 -78 78v170q1 6 7 6zM442 850h72q3 0 93 -93v-37q0 -6 -7 -6h-124q-4 0 -40 40v90q1 6 6 6z" />
    <glyph glyph-name="plus" unicode="+" horiz-adv-x="806" 
d="M320 1165q5 0 120 -120v-232q0 -8 -8 -8h-144q-8 0 -8 8v312q0 5 40 40zM40 765h616q5 0 40 -40q0 -5 -120 -120h-456q-5 0 -120 120q0 5 40 40zM288 565h144q8 -1 8 -8v-312q0 -5 -40 -40q-5 0 -120 120v232q1 8 8 8z" />
    <glyph glyph-name="comma" unicode="," horiz-adv-x="306" 
d="M216 100v-8q0 -6 -166 -291h-8q-6 0 -26 291v8q0 6 96 96h8q6 0 96 -96z" />
    <glyph glyph-name="hyphen" unicode="-" horiz-adv-x="670" 
d="M89 974h472q5 0 80 -80v-4q0 -5 -80 -80h-472q-5 0 -80 80v4q0 5 80 80z" />
    <glyph glyph-name="hyphen" unicode="&#xad;" horiz-adv-x="670" 
d="M89 974h472q5 0 80 -80v-4q0 -5 -80 -80h-472q-5 0 -80 80v4q0 5 80 80z" />
    <glyph glyph-name="period" unicode="." horiz-adv-x="295" 
d="M6 92v8q0 6 96 96h8q6 0 96 -96v-8q0 -6 -96 -96h-8q-6 0 -96 96z" />
    <glyph glyph-name="slash" unicode="/" horiz-adv-x="902" 
d="M776 1428q12 -19 12 -52v-4q0 -16 -224 -420q-13 0 -156 -48q-16 30 -16 60q207 388 228 416q147 48 156 48zM532 928q16 -30 16 -60q-207 -388 -228 -416q-147 -48 -156 -48q-16 36 -16 56q205 388 232 420q7 0 152 48zM288 420q9 -13 16 -56q-182 -322 -208 -352
q-37 -12 -48 -12q-8 13 -48 160q116 217 136 220q145 40 152 40z" />
    <glyph glyph-name="zero" unicode="0" 
d="M120 1428h568q5 0 40 -40q0 -5 -120 -120h-408q-5 0 -120 120q0 5 40 40zM764 1388q5 0 40 -40v-568q0 -5 -40 -40q-5 0 -120 120v408q0 5 120 120zM40 1384q5 0 120 -120v-408q0 -5 -120 -120q-5 0 -40 40v568q0 5 40 40zM512 1072q12 -15 68 -156q-164 -421 -172 -428
q-140 -64 -160 -64q-16 44 -16 60q224 561 232 568q40 20 48 20zM40 696q5 0 120 -120v-408q0 -5 -120 -120q-5 0 -40 40v568q0 5 40 40zM764 692q5 0 40 -40v-568q0 -5 -40 -40q-5 0 -120 120v408q0 5 120 120zM196 160h408q5 0 120 -120q0 -5 -40 -40h-568q-5 0 -40 40
q0 5 120 120z" />
    <glyph glyph-name="one" unicode="1" horiz-adv-x="608" 
d="M384 1428q5 0 120 -120v-456q0 -5 -120 -120q-5 0 -40 40v616q0 5 40 40zM240 1284h48q8 -1 8 -8v-160q0 -4 -124 -124q-80 4 -120 4h-44q-8 0 -8 8q5 80 32 80q200 200 208 200zM464 696q5 0 40 -40v-616q0 -5 -40 -40q-5 0 -120 120v456q0 5 120 120z" />
    <glyph glyph-name="two" unicode="2" 
d="M116 1428h568q5 0 40 -40q0 -5 -120 -120h-408q-5 0 -120 120q0 5 40 40zM764 1384q5 0 40 -40v-568q0 -5 -40 -40q-5 0 -120 120v408q0 5 120 120zM160 792h472q5 0 80 -80v-4q0 -5 -80 -80h-472q-5 0 -80 80v4q0 5 80 80zM40 692q5 0 120 -120v-408q0 -5 -120 -120
q-5 0 -40 40v568q0 5 40 40zM200 160h408q5 0 120 -120q0 -5 -40 -40h-568q-5 0 -40 40q0 5 120 120z" />
    <glyph glyph-name="three" unicode="3" 
d="M40 1428h568q5 0 40 -40q0 -5 -120 -120h-408q-5 0 -120 120q0 5 40 40zM688 1384q5 0 40 -40v-568q0 -5 -40 -40q-5 0 -120 120v408q0 5 120 120zM96 800h472q5 0 80 -80v-4q0 -5 -80 -80h-472q-5 0 -80 80v4q0 5 80 80zM688 696q5 0 40 -40v-568q0 -5 -40 -40
q-5 0 -120 120v408q0 5 120 120zM124 160h408q5 0 120 -120q0 -5 -40 -40h-568q-5 0 -40 40q0 5 120 120z" />
    <glyph glyph-name="four" unicode="4" 
d="M40 1428q5 0 120 -120v-456q0 -5 -120 -120q-5 0 -40 40v616q0 5 40 40zM764 1428q5 0 40 -40v-616q0 -5 -40 -40q-5 0 -120 120v456q0 5 120 120zM172 792h472q5 0 80 -80v-4q0 -5 -80 -80h-472q-5 0 -80 80v4q0 5 80 80zM764 648q5 0 40 -40v-568q0 -5 -40 -40
q-5 0 -120 120v408q0 5 120 120z" />
    <glyph glyph-name="five" unicode="5" 
d="M120 1428h568q5 0 40 -40q0 -5 -120 -120h-408q-5 0 -120 120q0 5 40 40zM40 1384q5 0 120 -120v-408q0 -5 -120 -120q-5 0 -40 40v568q0 5 40 40zM160 800h472q5 0 80 -80v-4q0 -5 -80 -80h-472q-5 0 -80 80v4q0 5 80 80zM764 692q5 0 40 -40v-568q0 -5 -40 -40
q-5 0 -120 120v408q0 5 120 120zM196 160h408q5 0 120 -120q0 -5 -40 -40h-568q-5 0 -40 40q0 5 120 120z" />
    <glyph glyph-name="six" unicode="6" 
d="M120 1428h568q5 0 40 -40q0 -5 -120 -120h-408q-5 0 -120 120q0 5 40 40zM40 1384q5 0 120 -120v-408q0 -5 -120 -120q-5 0 -40 40v568q0 5 40 40zM160 800h472q5 0 80 -80v-4q0 -5 -80 -80h-472q-5 0 -80 80v4q0 5 80 80zM40 696q5 0 120 -120v-408q0 -5 -120 -120
q-5 0 -40 40v568q0 5 40 40zM764 692q5 0 40 -40v-568q0 -5 -40 -40q-5 0 -120 120v408q0 5 120 120zM196 160h408q5 0 120 -120q0 -5 -40 -40h-568q-5 0 -40 40q0 5 120 120z" />
    <glyph glyph-name="seven" unicode="7" 
d="M40 1428h568q5 0 40 -40q0 -5 -120 -120h-408q-5 0 -120 120q0 5 40 40zM684 1388q5 0 40 -40v-568q0 -5 -40 -40q-5 0 -120 120v408q0 5 120 120zM684 696q5 0 40 -40v-616q0 -5 -40 -40q-5 0 -120 120v456q0 5 120 120z" />
    <glyph glyph-name="eight" unicode="8" 
d="M120 1428h568q5 0 40 -40q0 -5 -120 -120h-408q-5 0 -120 120q0 5 40 40zM764 1388q5 0 40 -40v-568q0 -5 -40 -40q-5 0 -120 120v408q0 5 120 120zM40 1384q5 0 120 -120v-408q0 -5 -120 -120q-5 0 -40 40v568q0 5 40 40zM160 800h472q5 0 80 -80v-4q0 -5 -80 -80h-472
q-5 0 -80 80v4q0 5 80 80zM40 696q5 0 120 -120v-408q0 -5 -120 -120q-5 0 -40 40v568q0 5 40 40zM764 692q5 0 40 -40v-568q0 -5 -40 -40q-5 0 -120 120v408q0 5 120 120zM196 160h408q5 0 120 -120q0 -5 -40 -40h-568q-5 0 -40 40q0 5 120 120z" />
    <glyph glyph-name="nine" unicode="9" 
d="M120 1428h568q5 0 40 -40q0 -5 -120 -120h-408q-5 0 -120 120q0 5 40 40zM40 1384q5 0 120 -120v-408q0 -5 -120 -120q-5 0 -40 40v568q0 5 40 40zM764 1380q5 0 40 -40v-568q0 -5 -40 -40q-5 0 -120 120v408q0 5 120 120zM172 792h472q5 0 80 -80v-4q0 -5 -80 -80h-472
q-5 0 -80 80v4q0 5 80 80zM764 692q5 0 40 -40v-568q0 -5 -40 -40q-5 0 -120 120v408q0 5 120 120zM196 160h408q5 0 120 -120q0 -5 -40 -40h-568q-5 0 -40 40q0 5 120 120z" />
    <glyph glyph-name="colon" unicode=":" horiz-adv-x="295" 
d="M6 92v8q0 6 96 96h8q6 0 96 -96v-8q0 -6 -96 -96h-8q-6 0 -96 96zM10 1092v8q0 6 96 96h8q6 0 96 -96v-8q0 -6 -96 -96h-8q-6 0 -96 96z" />
    <glyph glyph-name="semicolon" unicode=";" horiz-adv-x="557" 
d="M216 100v-8q0 -6 -166 -291h-8q-6 0 -26 291v8q0 6 96 96h8q6 0 96 -96zM10 1092v8q0 6 96 96h8q6 0 96 -96v-8q0 -6 -96 -96h-8q-6 0 -96 96z" />
    <glyph glyph-name="semicolon" unicode="&#x37e;" horiz-adv-x="557" 
d="M216 100v-8q0 -6 -166 -291h-8q-6 0 -26 291v8q0 6 96 96h8q6 0 96 -96zM10 1092v8q0 6 96 96h8q6 0 96 -96v-8q0 -6 -96 -96h-8q-6 0 -96 96z" />
    <glyph glyph-name="less" unicode="&#x3c;" horiz-adv-x="694" 
d="M19 813q19 22 492 304q27 0 56 -16q-8 -46 -36 -160q-4 -8 -356 -216q-150 36 -164 44q8 28 8 44zM179 649l344 -208q10 0 44 -160q0 -20 -48 -20h-4q-16 0 -436 260q-68 26 -68 84q0 9 168 44z" />
    <glyph glyph-name="equal" unicode="=" horiz-adv-x="707" 
d="M89 974h472q5 0 80 -80v-4q0 -5 -80 -80h-472q-5 0 -80 80v4q0 5 80 80zM89 606h472q5 0 80 -80v-4q0 -5 -76 -76h-480q-5 0 -76 76v4q0 5 80 80z" />
    <glyph glyph-name="greater" unicode="&#x3e;" horiz-adv-x="698" 
d="M567 769q-14 -8 -164 -44q-352 208 -356 216q-28 114 -36 160q29 16 56 16q473 -282 492 -304q0 -16 8 -44zM567 605q0 -58 -68 -84q-420 -260 -436 -260h-4q-48 0 -48 20q34 160 44 160l344 208q168 -35 168 -44z" />
    <glyph glyph-name="question" unicode="?" 
d="M40 1428h568q5 0 40 -40q0 -5 -120 -120h-408q-5 0 -120 120q0 5 40 40zM688 1384q5 0 40 -40v-568q0 -5 -40 -40q-5 0 -120 120v408q0 5 120 120zM96 800h472q5 0 80 -80v-4q0 -5 -80 -80h-472q-5 0 -80 80v4q0 5 80 80zM80 564q5 0 84 -84v-200q0 -5 -84 -84
q-5 0 -80 80v208q0 5 80 80zM76 156h4q5 0 76 -76v-4q0 -5 -76 -76h-4q-5 0 -76 76v4q0 5 76 76z" />
    <glyph glyph-name="at" unicode="@" horiz-adv-x="902" 
d="M120 1428h568q5 0 40 -40q0 -5 -120 -120h-408q-5 0 -120 120q0 5 40 40zM764 1388q5 0 40 -40v-568q0 -5 -40 -40q-5 0 -120 120v408q0 5 120 120zM40 1384q5 0 120 -120v-408q0 -5 -120 -120q-5 0 -40 40v568q0 5 40 40zM296 1012h188q6 0 24 -24q-70 -68 -72 -68h-96
q-5 0 -68 68q0 6 24 24zM528 980h4q5 0 20 -20v-192q0 -5 -20 -20h-4q-5 0 -68 68v96q0 5 68 68zM296 748h188q6 0 24 -24q-37 -42 -72 -68h-96q-5 0 -68 68q0 6 24 24zM528 708q6 0 24 -24v-188q0 -5 -20 -20h-4q-5 0 -68 68v96q0 5 68 68zM40 696q5 0 120 -120v-408
q0 -5 -120 -120q-5 0 -40 40v568q0 5 40 40zM268 692h4q5 0 68 -68v-96q0 -5 -68 -68q-6 0 -24 24v188q0 5 20 20zM764 692q5 0 40 -40v-568q0 -5 -40 -40q-5 0 -120 120v408q0 5 120 120zM356 512h96q2 0 72 -68q0 -6 -24 -24h-188q-6 0 -24 24q0 5 68 68zM196 160h408
q5 0 120 -120q0 -5 -40 -40h-568q-5 0 -40 40q0 5 120 120z" />
    <glyph glyph-name="A" unicode="A" 
d="M120 1428h568q5 0 40 -40q0 -5 -120 -120h-408q-5 0 -120 120q0 5 40 40zM764 1388q5 0 40 -40v-568q0 -5 -40 -40q-5 0 -120 120v408q0 5 120 120zM40 1384q5 0 120 -120v-408q0 -5 -120 -120q-5 0 -40 40v568q0 5 40 40zM160 800h472q5 0 80 -80v-4q0 -5 -80 -80h-472
q-5 0 -80 80v4q0 5 80 80zM40 696q5 0 120 -120v-456q0 -5 -120 -120q-5 0 -40 40v616q0 5 40 40zM764 696q5 0 40 -40v-616q0 -5 -40 -40q-5 0 -120 120v456q0 5 120 120z" />
    <glyph glyph-name="B" unicode="B" 
d="M40 1428h648q5 0 40 -40q0 -5 -120 -120h-408q-145 136 -160 156v4zM0 1420h4q5 0 156 -156v-408q0 -5 -120 -120q-5 0 -40 40v644zM764 1388q5 0 40 -40v-568q0 -5 -40 -40q-5 0 -120 120v408q0 5 120 120zM160 800h472q5 0 80 -80v-4q0 -5 -80 -80h-472q-5 0 -80 80v4
q0 5 80 80zM40 696q5 0 120 -120v-408q-136 -145 -156 -160h-4v648q0 5 40 40zM764 692q5 0 40 -40v-568q0 -5 -40 -40q-5 0 -120 120v408q0 5 120 120zM196 160h408q5 0 120 -120q0 -5 -40 -40h-640v4q131 140 152 156z" />
    <glyph glyph-name="C" unicode="C" 
d="M120 1428h568q5 0 40 -40q0 -5 -120 -120h-408q-5 0 -120 120q0 5 40 40zM40 1384q5 0 120 -120v-408q0 -5 -120 -120q-5 0 -40 40v568q0 5 40 40zM40 696q5 0 120 -120v-408q0 -5 -120 -120q-5 0 -40 40v568q0 5 40 40zM196 160h408q5 0 120 -120q0 -5 -40 -40h-568
q-5 0 -40 40q0 5 120 120z" />
    <glyph glyph-name="D" unicode="D" 
d="M40 1428h648q5 0 40 -40q0 -5 -120 -120h-408q-145 136 -160 156v4zM0 1420h4q5 0 156 -156v-408q0 -5 -120 -120q-5 0 -40 40v644zM764 1388q5 0 40 -40v-568q0 -5 -40 -40q-5 0 -120 120v408q0 5 120 120zM40 696q5 0 120 -120v-408q-136 -145 -156 -160h-4v648
q0 5 40 40zM764 692q5 0 40 -40v-568q0 -5 -40 -40q-5 0 -120 120v408q0 5 120 120zM196 160h408q5 0 120 -120q0 -5 -40 -40h-640v4q131 140 152 156z" />
    <glyph glyph-name="E" unicode="E" 
d="M120 1428h568q5 0 40 -40q0 -5 -120 -120h-408q-5 0 -120 120q0 5 40 40zM40 1384q5 0 120 -120v-408q0 -5 -120 -120q-5 0 -40 40v568q0 5 40 40zM160 800h472q5 0 80 -80v-4q0 -5 -80 -80h-472q-5 0 -80 80v4q0 5 80 80zM40 696q5 0 120 -120v-408q0 -5 -120 -120
q-5 0 -40 40v568q0 5 40 40zM196 160h408q5 0 120 -120q0 -5 -40 -40h-568q-5 0 -40 40q0 5 120 120z" />
    <glyph glyph-name="F" unicode="F" 
d="M120 1428h568q5 0 40 -40q0 -5 -120 -120h-408q-5 0 -120 120q0 5 40 40zM40 1384q5 0 120 -120v-408q0 -5 -120 -120q-5 0 -40 40v568q0 5 40 40zM160 800h472q5 0 80 -80v-4q0 -5 -80 -80h-472q-5 0 -80 80v4q0 5 80 80zM40 696q5 0 120 -120v-456q0 -5 -120 -120
q-5 0 -40 40v616q0 5 40 40z" />
    <glyph glyph-name="G" unicode="G" 
d="M120 1428h568q5 0 40 -40q0 -5 -120 -120h-408q-5 0 -120 120q0 5 40 40zM40 1384q5 0 120 -120v-408q0 -5 -120 -120q-5 0 -40 40v568q0 5 40 40zM428 800h204q5 0 80 -80v-4q0 -5 -80 -80h-204q-5 0 -80 80v4q0 5 80 80zM40 696q5 0 120 -120v-408q0 -5 -120 -120
q-5 0 -40 40v568q0 5 40 40zM764 692q5 0 40 -40v-568q0 -5 -40 -40q-5 0 -120 120v408q0 5 120 120zM196 160h408q5 0 120 -120q0 -5 -40 -40h-568q-5 0 -40 40q0 5 120 120z" />
    <glyph glyph-name="H" unicode="H" 
d="M40 1428q5 0 120 -120v-456q0 -5 -120 -120q-5 0 -40 40v616q0 5 40 40zM764 1428q5 0 40 -40v-616q0 -5 -40 -40q-5 0 -120 120v456q0 5 120 120zM160 800h472q5 0 80 -80v-4q0 -5 -80 -80h-472q-5 0 -80 80v4q0 5 80 80zM40 696q5 0 120 -120v-456q0 -5 -120 -120
q-5 0 -40 40v616q0 5 40 40zM764 696q5 0 40 -40v-616q0 -5 -40 -40q-5 0 -120 120v456q0 5 120 120z" />
    <glyph glyph-name="I" unicode="I" horiz-adv-x="279" 
d="M40 1428q5 0 120 -120v-456q0 -5 -120 -120q-5 0 -40 40v616q0 5 40 40zM120 696q5 0 40 -40v-616q0 -5 -40 -40q-5 0 -120 120v456q0 5 120 120z" />
    <glyph glyph-name="J" unicode="J" 
d="M764 1428q5 0 40 -40v-616q0 -5 -40 -40q-5 0 -120 120v456q0 5 120 120zM40 696q5 0 120 -120v-408q0 -5 -120 -120q-5 0 -40 40v568q0 5 40 40zM764 692q5 0 40 -40v-568q0 -5 -40 -40q-5 0 -120 120v408q0 5 120 120zM196 160h408q5 0 120 -120q0 -5 -40 -40h-568
q-5 0 -40 40q0 5 120 120z" />
    <glyph glyph-name="K" unicode="K" 
d="M40 1428q5 0 120 -120v-456q0 -5 -120 -120q-5 0 -40 40v616q0 5 40 40zM636 1244h160q8 -1 8 -8v-48l-344 -336h-160q-8 0 -8 8v48zM160 800h472q5 0 80 -80v-4q0 -5 -80 -80h-472q-5 0 -80 80v4q0 5 80 80zM40 696q5 0 120 -120v-456q0 -5 -120 -120q-5 0 -40 40v616
q0 5 40 40zM764 696q5 0 40 -40v-616q0 -5 -40 -40q-5 0 -120 120v456q0 5 120 120z" />
    <glyph glyph-name="L" unicode="L" 
d="M0 1424h4q6 0 156 -160v-408q0 -5 -120 -120q-5 0 -40 40v648zM40 696q5 0 120 -120v-408q0 -5 -120 -120q-5 0 -40 40v568q0 5 40 40zM196 160h408q5 0 120 -120q0 -5 -40 -40h-568q-5 0 -40 40q0 5 120 120z" />
    <glyph glyph-name="M" unicode="M" horiz-adv-x="1635" 
d="M120 1428h568q5 0 40 -40q0 -5 -120 -120h-408q-5 0 -120 120q0 5 40 40zM844 1428h568q5 0 40 -40q0 -5 -120 -120h-408q-5 0 -120 120q0 5 40 40zM764 1388q5 0 40 -40v-568q0 -5 -40 -40q-5 0 -120 120v408q0 5 120 120zM1488 1388q5 0 40 -40v-568q0 -5 -40 -40
q-5 0 -120 120v408q0 5 120 120zM40 1384q5 0 120 -120v-408q0 -5 -120 -120q-5 0 -40 40v568q0 5 40 40zM120 696q5 0 40 -40v-616q0 -5 -40 -40q-5 0 -120 120v456q0 5 120 120zM764 696q5 0 40 -40v-616q0 -5 -40 -40q-5 0 -120 120v456q0 5 120 120zM1408 696
q5 0 120 -120v-456q0 -5 -120 -120q-5 0 -40 40v616q0 5 40 40z" />
    <glyph glyph-name="N" unicode="N" 
d="M40 1428q5 0 120 -120v-456q0 -5 -120 -120q-5 0 -40 40v616q0 5 40 40zM764 1428q5 0 40 -40v-616q0 -5 -40 -40q-5 0 -120 120v456q0 5 120 120zM204 1264h48q77 -64 264 -260q11 0 84 -80v-160q0 -8 -8 -8h-48q-4 0 -4 4l-8 -4q-171 180 -336 340v160q1 8 8 8zM40 696
q5 0 120 -120v-456q0 -5 -120 -120q-5 0 -40 40v616q0 5 40 40zM764 696q5 0 40 -40v-616q0 -5 -40 -40q-5 0 -120 120v456q0 5 120 120z" />
    <glyph glyph-name="O" unicode="O" 
d="M120 1428h568q5 0 40 -40q0 -5 -120 -120h-408q-5 0 -120 120q0 5 40 40zM764 1388q5 0 40 -40v-568q0 -5 -40 -40q-5 0 -120 120v408q0 5 120 120zM40 1384q5 0 120 -120v-408q0 -5 -120 -120q-5 0 -40 40v568q0 5 40 40zM40 696q5 0 120 -120v-408q0 -5 -120 -120
q-5 0 -40 40v568q0 5 40 40zM764 692q5 0 40 -40v-568q0 -5 -40 -40q-5 0 -120 120v408q0 5 120 120zM196 160h408q5 0 120 -120q0 -5 -40 -40h-568q-5 0 -40 40q0 5 120 120z" />
    <glyph glyph-name="P" unicode="P" 
d="M120 1428h568q5 0 40 -40q0 -5 -120 -120h-408q-5 0 -120 120q0 5 40 40zM764 1388q5 0 40 -40v-568q0 -5 -40 -40q-5 0 -120 120v408q0 5 120 120zM40 1384q5 0 120 -120v-408q0 -5 -120 -120q-5 0 -40 40v568q0 5 40 40zM160 800h472q5 0 80 -80v-4q0 -5 -80 -80h-472
q-5 0 -80 80v4q0 5 80 80zM40 696q5 0 120 -120v-456q0 -5 -120 -120q-5 0 -40 40v616q0 5 40 40z" />
    <glyph glyph-name="Q" unicode="Q" 
d="M120 1428h568q5 0 40 -40q0 -5 -120 -120h-408q-5 0 -120 120q0 5 40 40zM764 1388q5 0 40 -40v-568q0 -5 -40 -40q-5 0 -120 120v408q0 5 120 120zM40 1384q5 0 120 -120v-408q0 -5 -120 -120q-5 0 -40 40v568q0 5 40 40zM40 696q5 0 120 -120v-408q0 -5 -120 -120
q-5 0 -40 40v568q0 5 40 40zM764 692q5 0 40 -40v-568q0 -5 -40 -40q-5 0 -120 120v408q0 5 120 120zM400 356h4q5 0 80 -80v-68q0 -8 -8 -8h-148q-8 0 -8 8v68q0 5 80 80zM196 160h408q5 0 120 -120q0 -5 -40 -40h-568q-5 0 -40 40q0 5 120 120zM328 -40h148q8 -1 8 -8v-72
q0 -5 -80 -80h-4q-5 0 -80 80v72q1 8 8 8z" />
    <glyph glyph-name="R" unicode="R" 
d="M120 1428h568q5 0 40 -40q0 -5 -120 -120h-408q-5 0 -120 120q0 5 40 40zM764 1388q5 0 40 -40v-568q0 -5 -40 -40q-5 0 -120 120v408q0 5 120 120zM40 1384q5 0 120 -120v-408q0 -5 -120 -120q-5 0 -40 40v568q0 5 40 40zM160 800h472q5 0 80 -80v-4q0 -5 -80 -80h-472
q-5 0 -80 80v4q0 5 80 80zM40 696q5 0 120 -120v-456q0 -5 -120 -120q-5 0 -40 40v616q0 5 40 40zM440 596h116q84 -43 144 -260q16 -34 104 -284q-20 -40 -20 -48h-4q-164 59 -164 96q-120 341 -184 492z" />
    <glyph glyph-name="S" unicode="S" 
d="M120 1428h568q5 0 40 -40q0 -5 -120 -120h-408q-5 0 -120 120q0 5 40 40zM40 1384q5 0 120 -120v-408q0 -5 -120 -120q-5 0 -40 40v568q0 5 40 40zM160 800h472q5 0 80 -80v-4q0 -5 -80 -80h-472q-5 0 -80 80v4q0 5 80 80zM764 692q5 0 40 -40v-568q0 -5 -40 -40
q-5 0 -120 120v408q0 5 120 120zM196 160h408q5 0 120 -120q0 -5 -40 -40h-568q-5 0 -40 40q0 5 120 120z" />
    <glyph glyph-name="T" unicode="T" 
d="M40 1428h724q5 0 40 -40q0 -5 -120 -120h-564q-5 0 -120 120q0 5 40 40zM388 1196q5 0 120 -120v-324q0 -5 -120 -120q-5 0 -40 40v484q0 5 40 40zM468 560q5 0 40 -40v-480q0 -5 -40 -40q-5 0 -120 120v320q0 5 120 120z" />
    <glyph glyph-name="U" unicode="U" 
d="M40 1428q5 0 120 -120v-456q0 -5 -120 -120q-5 0 -40 40v616q0 5 40 40zM764 1428q5 0 40 -40v-616q0 -5 -40 -40q-5 0 -120 120v456q0 5 120 120zM40 692q5 0 120 -120v-408q0 -5 -120 -120q-5 0 -40 40v568q0 5 40 40zM764 688q5 0 40 -40v-568q0 -5 -40 -40
q-5 0 -120 120v408q0 5 120 120zM200 160h408q5 0 120 -120q0 -5 -40 -40h-568q-5 0 -40 40q0 5 120 120z" />
    <glyph glyph-name="V" unicode="V" 
d="M40 1428q5 0 120 -120v-600q0 -5 -120 -120q-5 0 -40 40v760q0 5 40 40zM756 1428h8q5 0 36 -36v-748q0 -5 -40 -40q-5 0 -120 120v588q0 5 116 116zM16 556q154 -36 168 -44q15 -31 208 -336q-31 -168 -40 -168h-4q-53 0 -68 44q-31 43 -280 448q8 42 16 56zM788 544
q12 -40 12 -60l-304 -476q-40 -8 -48 -8q-10 18 -40 164q208 340 216 344q137 36 164 36z" />
    <glyph glyph-name="W" unicode="W" horiz-adv-x="1540" 
d="M40 1444q5 0 120 -120v-600q0 -5 -120 -120q-5 0 -40 40v760q0 5 40 40zM760 1444q5 0 40 -40v-680q0 -5 -120 -120q-5 0 -40 40v680q0 5 120 120zM1400 1444q5 0 40 -40v-760q0 -5 -40 -40q-5 0 -120 120v600q0 5 120 120zM16 556q154 -36 168 -44q15 -31 208 -336
q-31 -168 -40 -168h-4q-53 0 -68 44q-31 43 -280 448q8 42 16 56zM788 544l4 -8v-8q-119 -255 -272 -488q-15 -40 -72 -40q-10 18 -40 164q208 340 216 344q137 36 164 36zM1428 544q12 -40 12 -60l-304 -476q-40 -8 -48 -8q-10 18 -40 164q208 340 216 344q137 36 164 36z
M836 484q10 -9 196 -308q-31 -168 -40 -168h-4q-53 0 -68 44l-172 272q80 156 88 160z" />
    <glyph glyph-name="X" unicode="X" 
d="M16 1428q172 -38 172 -56l200 -328q-32 -156 -40 -168q-68 12 -68 40l-280 452q0 31 16 60zM788 1428q8 -14 16 -56q-284 -468 -300 -484q-11 0 -48 -12q-7 0 -40 168q206 342 212 344zM200 792h480q5 0 40 -40q0 -5 -120 -120h-480q-5 0 -40 40q0 5 120 120zM348 548
q8 -9 40 -172q-196 -316 -216 -340q-134 -36 -160 -36q-12 41 -12 56q271 445 300 480zM456 548q72 -14 72 -48q127 -199 276 -448q-7 -52 -24 -52q-168 30 -168 60q-167 267 -196 324q32 157 40 164z" />
    <glyph glyph-name="Y" unicode="Y" 
d="M40 1428q5 0 120 -120v-168q0 -5 -120 -120q-5 0 -40 40v328q0 5 40 40zM760 1428q5 0 40 -40v-328q0 -5 -40 -40q-5 0 -120 120v168q0 5 120 120zM16 988q154 -36 168 -44q15 -31 208 -336q-31 -168 -40 -168h-4q-53 0 -68 44q-31 43 -280 448q8 42 16 56zM788 976
q12 -40 12 -60l-304 -476q-40 -8 -48 -8q-10 18 -40 164q208 340 216 344q137 36 164 36zM424 408q5 0 40 -40v-328q0 -5 -40 -40q-5 0 -120 120v168q0 5 120 120z" />
    <glyph glyph-name="Z" unicode="Z" horiz-adv-x="901" 
d="M40 1428h568q5 0 40 -40q0 -5 -120 -120h-408q-5 0 -120 120q0 5 40 40zM692 1304q44 -135 44 -172q-5 -3 -240 -408q-47 -12 -52 -12q-43 131 -44 172q15 19 240 408q47 12 52 12zM356 708q44 -135 44 -172q-5 -3 -240 -408l-52 -12q-43 131 -44 172q15 19 240 408
q47 12 52 12zM264 160h408q5 0 120 -120q0 -5 -40 -40h-568q-5 0 -40 40q0 5 120 120z" />
    <glyph glyph-name="bracketleft" unicode="[" horiz-adv-x="599" 
d="M460 1332q-79 -84 -84 -84h-200q-84 79 -84 84q75 80 80 80h208q80 -75 80 -80zM164 1172v-392q-119 -124 -124 -124q-40 35 -40 40v568q35 40 40 40q124 -109 124 -132zM160 512v-312q-22 -22 -120 -92q-27 14 -40 32v432q13 18 40 32q98 -70 120 -92zM460 80
q-75 -80 -80 -80h-208q-80 75 -80 80q79 84 84 84h200q84 -79 84 -84z" />
    <glyph glyph-name="backslash" unicode="\" horiz-adv-x="902" 
d="M168 1380q21 -28 228 -416q0 -30 -16 -60q-143 48 -156 48q-224 404 -224 420v4q0 33 12 52q9 0 156 -48zM408 880q27 -32 232 -420q0 -20 -16 -56q-9 0 -156 48q-21 28 -228 416q0 30 16 60q145 -48 152 -48zM652 380q20 -3 136 -220q-40 -147 -48 -160q-11 0 -48 12
q-26 30 -208 352q7 43 16 56q7 0 152 -40z" />
    <glyph glyph-name="bracketright" unicode="]" horiz-adv-x="604" 
d="M80 1412h208q5 0 80 -80q0 -5 -84 -84h-200q-5 0 -84 84q0 5 80 80zM420 1304q5 0 40 -40v-568q0 -5 -40 -40q-5 0 -124 124v392q0 23 124 132zM420 604q27 -14 40 -32v-432q-13 -18 -40 -32q-98 70 -120 92v312q22 22 120 92zM84 164h200q5 0 84 -84q0 -5 -80 -80h-208
q-5 0 -80 80q0 5 84 84z" />
    <glyph glyph-name="asciicircum" unicode="^" horiz-adv-x="1049" 
d="M608 1560q22 -19 304 -492q0 -27 -16 -56q-46 8 -160 36q-8 4 -216 356q36 150 44 164q28 -8 44 -8zM444 1400l-208 -344q0 -10 -160 -44q-20 0 -20 48v4q0 16 260 436q26 68 84 68q9 0 44 -168z" />
    <glyph glyph-name="underscore" unicode="_" horiz-adv-x="646" 
d="M89 164h472q5 0 80 -80v-4q0 -5 -80 -80h-472q-5 0 -80 80v4q0 5 80 80z" />
    <glyph glyph-name="grave" unicode="`" horiz-adv-x="1024" 
d="M586 1497q25 0 104 -152q-34 -160 -48 -160h-8q-14 0 -36 4q-17 14 -172 288q7 43 16 56z" />
    <glyph glyph-name="a" unicode="a" 
d="M120 1428h568q5 0 40 -40q0 -5 -120 -120h-408q-5 0 -120 120q0 5 40 40zM764 1388q5 0 40 -40v-568q0 -5 -40 -40q-5 0 -120 120v408q0 5 120 120zM40 1384q5 0 120 -120v-408q0 -5 -120 -120q-5 0 -40 40v568q0 5 40 40zM160 800h472q5 0 80 -80v-4q0 -5 -80 -80h-472
q-5 0 -80 80v4q0 5 80 80zM40 696q5 0 120 -120v-456q0 -5 -120 -120q-5 0 -40 40v616q0 5 40 40zM764 696q5 0 40 -40v-616q0 -5 -40 -40q-5 0 -120 120v456q0 5 120 120z" />
    <glyph glyph-name="b" unicode="b" 
d="M40 1428h648q5 0 40 -40q0 -5 -120 -120h-408q-145 136 -160 156v4zM0 1420h4q5 0 156 -156v-408q0 -5 -120 -120q-5 0 -40 40v644zM764 1388q5 0 40 -40v-568q0 -5 -40 -40q-5 0 -120 120v408q0 5 120 120zM160 800h472q5 0 80 -80v-4q0 -5 -80 -80h-472q-5 0 -80 80v4
q0 5 80 80zM40 696q5 0 120 -120v-408q-136 -145 -156 -160h-4v648q0 5 40 40zM764 692q5 0 40 -40v-568q0 -5 -40 -40q-5 0 -120 120v408q0 5 120 120zM196 160h408q5 0 120 -120q0 -5 -40 -40h-640v4q131 140 152 156z" />
    <glyph glyph-name="c" unicode="c" 
d="M120 1428h568q5 0 40 -40q0 -5 -120 -120h-408q-5 0 -120 120q0 5 40 40zM40 1384q5 0 120 -120v-408q0 -5 -120 -120q-5 0 -40 40v568q0 5 40 40zM40 696q5 0 120 -120v-408q0 -5 -120 -120q-5 0 -40 40v568q0 5 40 40zM196 160h408q5 0 120 -120q0 -5 -40 -40h-568
q-5 0 -40 40q0 5 120 120z" />
    <glyph glyph-name="d" unicode="d" 
d="M40 1428h648q5 0 40 -40q0 -5 -120 -120h-408q-145 136 -160 156v4zM0 1420h4q5 0 156 -156v-408q0 -5 -120 -120q-5 0 -40 40v644zM764 1388q5 0 40 -40v-568q0 -5 -40 -40q-5 0 -120 120v408q0 5 120 120zM40 696q5 0 120 -120v-408q-136 -145 -156 -160h-4v648
q0 5 40 40zM764 692q5 0 40 -40v-568q0 -5 -40 -40q-5 0 -120 120v408q0 5 120 120zM196 160h408q5 0 120 -120q0 -5 -40 -40h-640v4q131 140 152 156z" />
    <glyph glyph-name="e" unicode="e" 
d="M120 1428h568q5 0 40 -40q0 -5 -120 -120h-408q-5 0 -120 120q0 5 40 40zM40 1384q5 0 120 -120v-408q0 -5 -120 -120q-5 0 -40 40v568q0 5 40 40zM160 800h472q5 0 80 -80v-4q0 -5 -80 -80h-472q-5 0 -80 80v4q0 5 80 80zM40 696q5 0 120 -120v-408q0 -5 -120 -120
q-5 0 -40 40v568q0 5 40 40zM196 160h408q5 0 120 -120q0 -5 -40 -40h-568q-5 0 -40 40q0 5 120 120z" />
    <glyph glyph-name="f" unicode="f" 
d="M120 1428h568q5 0 40 -40q0 -5 -120 -120h-408q-5 0 -120 120q0 5 40 40zM40 1384q5 0 120 -120v-408q0 -5 -120 -120q-5 0 -40 40v568q0 5 40 40zM160 800h472q5 0 80 -80v-4q0 -5 -80 -80h-472q-5 0 -80 80v4q0 5 80 80zM40 696q5 0 120 -120v-456q0 -5 -120 -120
q-5 0 -40 40v616q0 5 40 40z" />
    <glyph glyph-name="g" unicode="g" 
d="M120 1428h568q5 0 40 -40q0 -5 -120 -120h-408q-5 0 -120 120q0 5 40 40zM40 1384q5 0 120 -120v-408q0 -5 -120 -120q-5 0 -40 40v568q0 5 40 40zM428 800h204q5 0 80 -80v-4q0 -5 -80 -80h-204q-5 0 -80 80v4q0 5 80 80zM40 696q5 0 120 -120v-408q0 -5 -120 -120
q-5 0 -40 40v568q0 5 40 40zM764 692q5 0 40 -40v-568q0 -5 -40 -40q-5 0 -120 120v408q0 5 120 120zM196 160h408q5 0 120 -120q0 -5 -40 -40h-568q-5 0 -40 40q0 5 120 120z" />
    <glyph glyph-name="h" unicode="h" 
d="M40 1428q5 0 120 -120v-456q0 -5 -120 -120q-5 0 -40 40v616q0 5 40 40zM764 1428q5 0 40 -40v-616q0 -5 -40 -40q-5 0 -120 120v456q0 5 120 120zM160 800h472q5 0 80 -80v-4q0 -5 -80 -80h-472q-5 0 -80 80v4q0 5 80 80zM40 696q5 0 120 -120v-456q0 -5 -120 -120
q-5 0 -40 40v616q0 5 40 40zM764 696q5 0 40 -40v-616q0 -5 -40 -40q-5 0 -120 120v456q0 5 120 120z" />
    <glyph glyph-name="i" unicode="i" horiz-adv-x="279" 
d="M40 1428q5 0 120 -120v-456q0 -5 -120 -120q-5 0 -40 40v616q0 5 40 40zM120 696q5 0 40 -40v-616q0 -5 -40 -40q-5 0 -120 120v456q0 5 120 120z" />
    <glyph glyph-name="j" unicode="j" 
d="M764 1428q5 0 40 -40v-616q0 -5 -40 -40q-5 0 -120 120v456q0 5 120 120zM40 696q5 0 120 -120v-408q0 -5 -120 -120q-5 0 -40 40v568q0 5 40 40zM764 692q5 0 40 -40v-568q0 -5 -40 -40q-5 0 -120 120v408q0 5 120 120zM196 160h408q5 0 120 -120q0 -5 -40 -40h-568
q-5 0 -40 40q0 5 120 120z" />
    <glyph glyph-name="k" unicode="k" 
d="M40 1428q5 0 120 -120v-456q0 -5 -120 -120q-5 0 -40 40v616q0 5 40 40zM636 1244h160q8 -1 8 -8v-48l-344 -336h-160q-8 0 -8 8v48zM160 800h472q5 0 80 -80v-4q0 -5 -80 -80h-472q-5 0 -80 80v4q0 5 80 80zM40 696q5 0 120 -120v-456q0 -5 -120 -120q-5 0 -40 40v616
q0 5 40 40zM764 696q5 0 40 -40v-616q0 -5 -40 -40q-5 0 -120 120v456q0 5 120 120z" />
    <glyph glyph-name="l" unicode="l" 
d="M0 1424h4q6 0 156 -160v-408q0 -5 -120 -120q-5 0 -40 40v648zM40 696q5 0 120 -120v-408q0 -5 -120 -120q-5 0 -40 40v568q0 5 40 40zM196 160h408q5 0 120 -120q0 -5 -40 -40h-568q-5 0 -40 40q0 5 120 120z" />
    <glyph glyph-name="m" unicode="m" horiz-adv-x="1635" 
d="M120 1428h568q5 0 40 -40q0 -5 -120 -120h-408q-5 0 -120 120q0 5 40 40zM844 1428h568q5 0 40 -40q0 -5 -120 -120h-408q-5 0 -120 120q0 5 40 40zM764 1388q5 0 40 -40v-568q0 -5 -40 -40q-5 0 -120 120v408q0 5 120 120zM1488 1388q5 0 40 -40v-568q0 -5 -40 -40
q-5 0 -120 120v408q0 5 120 120zM40 1384q5 0 120 -120v-408q0 -5 -120 -120q-5 0 -40 40v568q0 5 40 40zM120 696q5 0 40 -40v-616q0 -5 -40 -40q-5 0 -120 120v456q0 5 120 120zM764 696q5 0 40 -40v-616q0 -5 -40 -40q-5 0 -120 120v456q0 5 120 120zM1408 696
q5 0 120 -120v-456q0 -5 -120 -120q-5 0 -40 40v616q0 5 40 40z" />
    <glyph glyph-name="n" unicode="n" 
d="M40 1428q5 0 120 -120v-456q0 -5 -120 -120q-5 0 -40 40v616q0 5 40 40zM764 1428q5 0 40 -40v-616q0 -5 -40 -40q-5 0 -120 120v456q0 5 120 120zM204 1264h48q77 -64 264 -260q11 0 84 -80v-160q0 -8 -8 -8h-48q-4 0 -4 4l-8 -4q-171 180 -336 340v160q1 8 8 8zM40 696
q5 0 120 -120v-456q0 -5 -120 -120q-5 0 -40 40v616q0 5 40 40zM764 696q5 0 40 -40v-616q0 -5 -40 -40q-5 0 -120 120v456q0 5 120 120z" />
    <glyph glyph-name="o" unicode="o" 
d="M120 1428h568q5 0 40 -40q0 -5 -120 -120h-408q-5 0 -120 120q0 5 40 40zM764 1388q5 0 40 -40v-568q0 -5 -40 -40q-5 0 -120 120v408q0 5 120 120zM40 1384q5 0 120 -120v-408q0 -5 -120 -120q-5 0 -40 40v568q0 5 40 40zM40 696q5 0 120 -120v-408q0 -5 -120 -120
q-5 0 -40 40v568q0 5 40 40zM764 692q5 0 40 -40v-568q0 -5 -40 -40q-5 0 -120 120v408q0 5 120 120zM196 160h408q5 0 120 -120q0 -5 -40 -40h-568q-5 0 -40 40q0 5 120 120z" />
    <glyph glyph-name="p" unicode="p" 
d="M120 1428h568q5 0 40 -40q0 -5 -120 -120h-408q-5 0 -120 120q0 5 40 40zM764 1388q5 0 40 -40v-568q0 -5 -40 -40q-5 0 -120 120v408q0 5 120 120zM40 1384q5 0 120 -120v-408q0 -5 -120 -120q-5 0 -40 40v568q0 5 40 40zM160 800h472q5 0 80 -80v-4q0 -5 -80 -80h-472
q-5 0 -80 80v4q0 5 80 80zM40 696q5 0 120 -120v-456q0 -5 -120 -120q-5 0 -40 40v616q0 5 40 40z" />
    <glyph glyph-name="q" unicode="q" 
d="M120 1428h568q5 0 40 -40q0 -5 -120 -120h-408q-5 0 -120 120q0 5 40 40zM764 1388q5 0 40 -40v-568q0 -5 -40 -40q-5 0 -120 120v408q0 5 120 120zM40 1384q5 0 120 -120v-408q0 -5 -120 -120q-5 0 -40 40v568q0 5 40 40zM40 696q5 0 120 -120v-408q0 -5 -120 -120
q-5 0 -40 40v568q0 5 40 40zM764 692q5 0 40 -40v-568q0 -5 -40 -40q-5 0 -120 120v408q0 5 120 120zM400 356h4q5 0 80 -80v-68q0 -8 -8 -8h-148q-8 0 -8 8v68q0 5 80 80zM196 160h408q5 0 120 -120q0 -5 -40 -40h-568q-5 0 -40 40q0 5 120 120zM328 -40h148q8 -1 8 -8v-72
q0 -5 -80 -80h-4q-5 0 -80 80v72q1 8 8 8z" />
    <glyph glyph-name="r" unicode="r" 
d="M120 1428h568q5 0 40 -40q0 -5 -120 -120h-408q-5 0 -120 120q0 5 40 40zM764 1388q5 0 40 -40v-568q0 -5 -40 -40q-5 0 -120 120v408q0 5 120 120zM40 1384q5 0 120 -120v-408q0 -5 -120 -120q-5 0 -40 40v568q0 5 40 40zM160 800h472q5 0 80 -80v-4q0 -5 -80 -80h-472
q-5 0 -80 80v4q0 5 80 80zM40 696q5 0 120 -120v-456q0 -5 -120 -120q-5 0 -40 40v616q0 5 40 40zM440 596h116q84 -43 144 -260q16 -34 104 -284q-20 -40 -20 -48h-4q-164 59 -164 96q-120 341 -184 492z" />
    <glyph glyph-name="s" unicode="s" 
d="M120 1428h568q5 0 40 -40q0 -5 -120 -120h-408q-5 0 -120 120q0 5 40 40zM40 1384q5 0 120 -120v-408q0 -5 -120 -120q-5 0 -40 40v568q0 5 40 40zM160 800h472q5 0 80 -80v-4q0 -5 -80 -80h-472q-5 0 -80 80v4q0 5 80 80zM764 692q5 0 40 -40v-568q0 -5 -40 -40
q-5 0 -120 120v408q0 5 120 120zM196 160h408q5 0 120 -120q0 -5 -40 -40h-568q-5 0 -40 40q0 5 120 120z" />
    <glyph glyph-name="t" unicode="t" 
d="M40 1428h724q5 0 40 -40q0 -5 -120 -120h-564q-5 0 -120 120q0 5 40 40zM388 1196q5 0 120 -120v-324q0 -5 -120 -120q-5 0 -40 40v484q0 5 40 40zM468 560q5 0 40 -40v-480q0 -5 -40 -40q-5 0 -120 120v320q0 5 120 120z" />
    <glyph glyph-name="u" unicode="u" 
d="M40 1428q5 0 120 -120v-456q0 -5 -120 -120q-5 0 -40 40v616q0 5 40 40zM764 1428q5 0 40 -40v-616q0 -5 -40 -40q-5 0 -120 120v456q0 5 120 120zM40 692q5 0 120 -120v-408q0 -5 -120 -120q-5 0 -40 40v568q0 5 40 40zM764 688q5 0 40 -40v-568q0 -5 -40 -40
q-5 0 -120 120v408q0 5 120 120zM200 160h408q5 0 120 -120q0 -5 -40 -40h-568q-5 0 -40 40q0 5 120 120z" />
    <glyph glyph-name="v" unicode="v" 
d="M40 1428q5 0 120 -120v-600q0 -5 -120 -120q-5 0 -40 40v760q0 5 40 40zM756 1428h8q5 0 36 -36v-748q0 -5 -40 -40q-5 0 -120 120v588q0 5 116 116zM16 556q154 -36 168 -44q15 -31 208 -336q-31 -168 -40 -168h-4q-53 0 -68 44q-31 43 -280 448q8 42 16 56zM788 544
q12 -40 12 -60l-304 -476q-40 -8 -48 -8q-10 18 -40 164q208 340 216 344q137 36 164 36z" />
    <glyph glyph-name="w" unicode="w" horiz-adv-x="1540" 
d="M40 1444q5 0 120 -120v-600q0 -5 -120 -120q-5 0 -40 40v760q0 5 40 40zM760 1444q5 0 40 -40v-680q0 -5 -120 -120q-5 0 -40 40v680q0 5 120 120zM1400 1444q5 0 40 -40v-760q0 -5 -40 -40q-5 0 -120 120v600q0 5 120 120zM16 556q154 -36 168 -44q15 -31 208 -336
q-31 -168 -40 -168h-4q-53 0 -68 44q-31 43 -280 448q8 42 16 56zM788 544l4 -8v-8q-119 -255 -272 -488q-15 -40 -72 -40q-10 18 -40 164q208 340 216 344q137 36 164 36zM1428 544q12 -40 12 -60l-304 -476q-40 -8 -48 -8q-10 18 -40 164q208 340 216 344q137 36 164 36z
M836 484q10 -9 196 -308q-31 -168 -40 -168h-4q-53 0 -68 44l-172 272q80 156 88 160z" />
    <glyph glyph-name="x" unicode="x" 
d="M16 1428q172 -38 172 -56l200 -328q-32 -156 -40 -168q-68 12 -68 40l-280 452q0 31 16 60zM788 1428q8 -14 16 -56q-284 -468 -300 -484q-11 0 -48 -12q-7 0 -40 168q206 342 212 344zM200 792h480q5 0 40 -40q0 -5 -120 -120h-480q-5 0 -40 40q0 5 120 120zM348 548
q8 -9 40 -172q-196 -316 -216 -340q-134 -36 -160 -36q-12 41 -12 56q271 445 300 480zM456 548q72 -14 72 -48q127 -199 276 -448q-7 -52 -24 -52q-168 30 -168 60q-167 267 -196 324q32 157 40 164z" />
    <glyph glyph-name="y" unicode="y" 
d="M40 1428q5 0 120 -120v-168q0 -5 -120 -120q-5 0 -40 40v328q0 5 40 40zM760 1428q5 0 40 -40v-328q0 -5 -40 -40q-5 0 -120 120v168q0 5 120 120zM16 988q154 -36 168 -44q15 -31 208 -336q-31 -168 -40 -168h-4q-53 0 -68 44q-31 43 -280 448q8 42 16 56zM788 976
q12 -40 12 -60l-304 -476q-40 -8 -48 -8q-10 18 -40 164q208 340 216 344q137 36 164 36zM424 408q5 0 40 -40v-328q0 -5 -40 -40q-5 0 -120 120v168q0 5 120 120z" />
    <glyph glyph-name="z" unicode="z" horiz-adv-x="901" 
d="M40 1428h568q5 0 40 -40q0 -5 -120 -120h-408q-5 0 -120 120q0 5 40 40zM692 1304q44 -135 44 -172q-5 -3 -240 -408q-47 -12 -52 -12q-43 131 -44 172q15 19 240 408q47 12 52 12zM356 708q44 -135 44 -172q-5 -3 -240 -408l-52 -12q-43 131 -44 172q15 19 240 408
q47 12 52 12zM264 160h408q5 0 120 -120q0 -5 -40 -40h-568q-5 0 -40 40q0 5 120 120z" />
    <glyph glyph-name="braceleft" unicode="{" horiz-adv-x="601" 
d="M432 1428q5 0 40 -40v-616q0 -5 -40 -40q-5 0 -120 120v456q0 5 120 120zM72 732h292q6 0 24 -24q0 -5 -72 -72h-292q-6 0 -24 24q0 5 72 72zM432 648q5 0 40 -40v-568q0 -5 -40 -40q-5 0 -120 120v408q0 5 120 120z" />
    <glyph glyph-name="bar" unicode="|" horiz-adv-x="295" 
d="M120 1104q5 0 40 -40v-568q0 -5 -40 -40q-5 0 -120 120v408q0 5 120 120zM120 408q5 0 40 -40v-568q0 -5 -40 -40q-5 0 -120 120v408q0 5 120 120zM120 1790q5 0 40 -40v-568q0 -5 -40 -40q-5 0 -120 120v408q0 5 120 120z" />
    <glyph glyph-name="braceright" unicode="}" horiz-adv-x="601" 
d="M160 1308v-456q-115 -120 -120 -120q-40 35 -40 40v616q35 40 40 40q120 -115 120 -120zM472 660q-18 -24 -24 -24h-292q-72 67 -72 72q18 24 24 24h292q72 -67 72 -72zM160 528v-408q-115 -120 -120 -120q-40 35 -40 40v568q35 40 40 40q120 -115 120 -120z" />
    <glyph glyph-name="asciitilde" unicode="~" horiz-adv-x="1002" 
d="M273 1329q4 -15 9 -104q-161 -185 -166 -185l-96 -7q-5 14 -5 36q223 257 229 258q4 0 29 2zM299 1310q106 -7 106 -12q20 -27 157 -181q-5 -101 -12 -101h-29q-41 43 -227 260q0 17 5 34zM829 1310l2 -5v-31q-122 -144 -224 -258h-29q-7 0 -12 101q161 186 166 186z" />
    <glyph glyph-name="exclamdown" unicode="&#xa1;" horiz-adv-x="311" 
d="M28 -210v484q35 40 40 40q120 -115 120 -120v-324q-115 -120 -120 -120q-40 35 -40 40zM28 406v320q115 120 120 120q40 -35 40 -40v-480q-35 -40 -40 -40q-120 115 -120 120zM36 962v4q27 36 48 36h8q20 0 64 -56v-4q0 -7 -8 -8h-84q-28 22 -28 28zM148 1022v36
q0 5 52 48h4q12 -6 12 -12v-84q-31 -36 -36 -36h-4q-28 16 -28 48zM0 1014v84q31 36 36 36h8q0 -8 24 -32v-52q-46 -52 -52 -52q-16 10 -16 16zM60 1162v4q0 8 8 8h84q32 -27 32 -32q-27 -36 -52 -36h-20q-52 46 -52 56z" />
    <glyph glyph-name="cent" unicode="&#xa2;" horiz-adv-x="1139" 
 />
    <glyph glyph-name="sterling" unicode="&#xa3;" horiz-adv-x="1014" 
 />
    <glyph glyph-name="currency" unicode="&#xa4;" horiz-adv-x="1014" 
 />
    <glyph glyph-name="yen" unicode="&#xa5;" 
 />
    <glyph glyph-name="brokenbar" unicode="&#xa6;" horiz-adv-x="1014" 
 />
    <glyph glyph-name="section" unicode="&#xa7;" horiz-adv-x="1014" 
 />
    <glyph glyph-name="dieresis" unicode="&#xa8;" horiz-adv-x="1024" 
d="M240 1379h8q6 0 96 -96v-8q0 -6 -96 -96h-8q-6 0 -96 96v8q0 6 96 96zM830 1375h8q6 0 96 -96v-8q0 -6 -96 -96h-8q-6 0 -96 96v8q0 6 96 96z" />
    <glyph glyph-name="copyright" unicode="&#xa9;" horiz-adv-x="1674" 
 />
    <glyph glyph-name="ordfeminine" unicode="&#xaa;" horiz-adv-x="648" 
 />
    <glyph glyph-name="guillemotleft" unicode="&#xab;" horiz-adv-x="944" 
 />
    <glyph glyph-name="logicalnot" unicode="&#xac;" horiz-adv-x="1014" 
 />
    <glyph glyph-name="registered" unicode="&#xae;" horiz-adv-x="1674" 
 />
    <glyph glyph-name="macron" unicode="&#xaf;" horiz-adv-x="670" 
 />
    <glyph glyph-name="degree" unicode="&#xb0;" horiz-adv-x="674" 
d="M259 1437h108q5 0 20 -20v-4q0 -5 -64 -64h-108q-5 0 -20 20v4q0 5 64 64zM391 1397h4q5 0 64 -64v-108q0 -5 -20 -20h-4q-5 0 -64 64v108q0 5 20 20zM191 1349h4q5 0 64 -64v-108q0 -5 -20 -20h-4q-5 0 -64 64v108q0 5 20 20zM307 1205h108q5 0 20 -20v-4q0 -5 -64 -64
h-108q-5 0 -20 20v4q0 5 64 64z" />
    <glyph glyph-name="plusminus" unicode="&#xb1;" horiz-adv-x="806" 
d="M320 1165q5 0 120 -120v-232q0 -8 -8 -8h-144q-8 0 -8 8v312q0 5 40 40zM40 765h616q5 0 40 -40q0 -5 -120 -120h-456q-5 0 -120 120q0 5 40 40zM288 565h144q8 -1 8 -8v-312q0 -5 -40 -40q-5 0 -120 120v232q1 8 8 8zM89 164h472q5 0 80 -80v-4q0 -5 -80 -80h-472
q-5 0 -80 80v4q0 5 80 80z" />
    <glyph glyph-name="uni00B2" unicode="&#xb2;" horiz-adv-x="1014" 
 />
    <glyph glyph-name="uni00B3" unicode="&#xb3;" horiz-adv-x="1014" 
 />
    <glyph glyph-name="acute" unicode="&#xb4;" horiz-adv-x="1024" 
d="M584 1533q9 -13 16 -56q-155 -274 -172 -288q-22 -4 -36 -4h-8q-14 0 -48 160q79 152 104 152z" />
    <glyph glyph-name="mu" unicode="&#xb5;" horiz-adv-x="1180" 
 />
    <glyph glyph-name="paragraph" unicode="&#xb6;" horiz-adv-x="1024" 
 />
    <glyph glyph-name="periodcentered" unicode="&#xb7;" horiz-adv-x="508" 
 />
    <glyph glyph-name="periodcentered" unicode="&#x2219;" horiz-adv-x="508" 
 />
    <glyph glyph-name="cedilla" unicode="&#xb8;" horiz-adv-x="1024" 
 />
    <glyph glyph-name="uni00B9" unicode="&#xb9;" horiz-adv-x="1014" 
 />
    <glyph glyph-name="ordmasculine" unicode="&#xba;" horiz-adv-x="718" 
 />
    <glyph glyph-name="guillemotright" unicode="&#xbb;" horiz-adv-x="944" 
 />
    <glyph glyph-name="onequarter" unicode="&#xbc;" horiz-adv-x="1708" 
 />
    <glyph glyph-name="onehalf" unicode="&#xbd;" horiz-adv-x="1964" 
 />
    <glyph glyph-name="threequarters" unicode="&#xbe;" horiz-adv-x="1708" 
 />
    <glyph glyph-name="questiondown" unicode="&#xbf;" horiz-adv-x="802" 
d="M688 0h-568q-5 0 -40 40q0 5 120 120h408q5 0 120 -120q0 -5 -40 -40zM40 44q-5 0 -40 40v568q0 5 40 40q5 0 120 -120v-408q0 -5 -120 -120zM632 628h-472q-5 0 -80 80v4q0 5 80 80h472q5 0 80 -80v-4q0 -5 -80 -80zM648 864q-5 0 -84 84v200q0 5 84 84q5 0 80 -80v-208
q0 -5 -80 -80zM652 1272h-4q-5 0 -76 76v4q0 5 76 76h4q5 0 76 -76v-4q0 -5 -76 -76z" />
    <glyph glyph-name="Agrave" unicode="&#xc0;" 
d="M120 1428h568q5 0 40 -40q0 -5 -120 -120h-408q-5 0 -120 120q0 5 40 40zM764 1388q5 0 40 -40v-568q0 -5 -40 -40q-5 0 -120 120v408q0 5 120 120zM40 1384q5 0 120 -120v-408q0 -5 -120 -120q-5 0 -40 40v568q0 5 40 40zM160 800h472q5 0 80 -80v-4q0 -5 -80 -80h-472
q-5 0 -80 80v4q0 5 80 80zM40 696q5 0 120 -120v-456q0 -5 -120 -120q-5 0 -40 40v616q0 5 40 40zM764 696q5 0 40 -40v-616q0 -5 -40 -40q-5 0 -120 120v456q0 5 120 120zM386 1907q25 0 104 -152q-34 -160 -48 -160h-8q-14 0 -36 4q-17 14 -172 288q7 43 16 56z" />
    <glyph glyph-name="Aacute" unicode="&#xc1;" 
d="M120 1428h568q5 0 40 -40q0 -5 -120 -120h-408q-5 0 -120 120q0 5 40 40zM764 1388q5 0 40 -40v-568q0 -5 -40 -40q-5 0 -120 120v408q0 5 120 120zM40 1384q5 0 120 -120v-408q0 -5 -120 -120q-5 0 -40 40v568q0 5 40 40zM160 800h472q5 0 80 -80v-4q0 -5 -80 -80h-472
q-5 0 -80 80v4q0 5 80 80zM40 696q5 0 120 -120v-456q0 -5 -120 -120q-5 0 -40 40v616q0 5 40 40zM764 696q5 0 40 -40v-616q0 -5 -40 -40q-5 0 -120 120v456q0 5 120 120zM572 1943q9 -13 16 -56q-155 -274 -172 -288q-22 -4 -36 -4h-8q-14 0 -48 160q79 152 104 152z" />
    <glyph glyph-name="Acircumflex" unicode="&#xc2;" 
d="M120 1428h568q5 0 40 -40q0 -5 -120 -120h-408q-5 0 -120 120q0 5 40 40zM764 1388q5 0 40 -40v-568q0 -5 -40 -40q-5 0 -120 120v408q0 5 120 120zM40 1384q5 0 120 -120v-408q0 -5 -120 -120q-5 0 -40 40v568q0 5 40 40zM160 800h472q5 0 80 -80v-4q0 -5 -80 -80h-472
q-5 0 -80 80v4q0 5 80 80zM40 696q5 0 120 -120v-456q0 -5 -120 -120q-5 0 -40 40v616q0 5 40 40zM764 696q5 0 40 -40v-616q0 -5 -40 -40q-5 0 -120 120v456q0 5 120 120zM386 1933q9 -13 16 -56q-155 -274 -172 -288q-22 -4 -36 -4h-8q-14 0 -48 160q79 152 104 152z
M562 1893q25 0 104 -152q-34 -160 -48 -160h-8q-14 0 -36 4q-17 14 -172 288q7 43 16 56z" />
    <glyph glyph-name="Atilde" unicode="&#xc3;" 
d="M120 1428h568q5 0 40 -40q0 -5 -120 -120h-408q-5 0 -120 120q0 5 40 40zM764 1388q5 0 40 -40v-568q0 -5 -40 -40q-5 0 -120 120v408q0 5 120 120zM40 1384q5 0 120 -120v-408q0 -5 -120 -120q-5 0 -40 40v568q0 5 40 40zM160 800h472q5 0 80 -80v-4q0 -5 -80 -80h-472
q-5 0 -80 80v4q0 5 80 80zM40 696q5 0 120 -120v-456q0 -5 -120 -120q-5 0 -40 40v616q0 5 40 40zM764 696q5 0 40 -40v-616q0 -5 -40 -40q-5 0 -120 120v456q0 5 120 120zM230 1945q9 -13 16 -56q-155 -274 -172 -288q-22 -4 -36 -4h-8q-14 0 -48 160q79 152 104 152z
M286 1945q168 -40 168 -56q76 -131 76 -136q-35 -156 -48 -156h-8q-47 0 -60 32q-148 256 -148 268q10 48 20 48zM806 1945q9 -13 16 -56q-155 -274 -172 -288q-22 -4 -36 -4h-8q-14 0 -48 160q79 152 104 152z" />
    <glyph glyph-name="Adieresis" unicode="&#xc4;" 
d="M120 1428h568q5 0 40 -40q0 -5 -120 -120h-408q-5 0 -120 120q0 5 40 40zM764 1388q5 0 40 -40v-568q0 -5 -40 -40q-5 0 -120 120v408q0 5 120 120zM40 1384q5 0 120 -120v-408q0 -5 -120 -120q-5 0 -40 40v568q0 5 40 40zM160 800h472q5 0 80 -80v-4q0 -5 -80 -80h-472
q-5 0 -80 80v4q0 5 80 80zM40 696q5 0 120 -120v-456q0 -5 -120 -120q-5 0 -40 40v616q0 5 40 40zM764 696q5 0 40 -40v-616q0 -5 -40 -40q-5 0 -120 120v456q0 5 120 120zM143 1789h8q6 0 96 -96v-8q0 -6 -96 -96h-8q-6 0 -96 96v8q0 6 96 96zM733 1785h8q6 0 96 -96v-8
q0 -6 -96 -96h-8q-6 0 -96 96v8q0 6 96 96z" />
    <glyph glyph-name="Aring" unicode="&#xc5;" 
d="M120 1428h568q5 0 40 -40q0 -5 -120 -120h-408q-5 0 -120 120q0 5 40 40zM764 1388q5 0 40 -40v-568q0 -5 -40 -40q-5 0 -120 120v408q0 5 120 120zM40 1384q5 0 120 -120v-408q0 -5 -120 -120q-5 0 -40 40v568q0 5 40 40zM160 800h472q5 0 80 -80v-4q0 -5 -80 -80h-472
q-5 0 -80 80v4q0 5 80 80zM40 696q5 0 120 -120v-456q0 -5 -120 -120q-5 0 -40 40v616q0 5 40 40zM764 696q5 0 40 -40v-616q0 -5 -40 -40q-5 0 -120 120v456q0 5 120 120zM398 1795h8q6 0 96 -96v-8q0 -6 -96 -96h-8q-6 0 -96 96v8q0 6 96 96z" />
    <glyph glyph-name="AE" unicode="&#xc6;" horiz-adv-x="1609" 
d="M120 1428h568q5 0 40 -40q0 -5 -120 -120h-408q-5 0 -120 120q0 5 40 40zM764 1388q5 0 40 -40v-568q0 -5 -40 -40q-5 0 -120 120v408q0 5 120 120zM40 1384q5 0 120 -120v-408q0 -5 -120 -120q-5 0 -40 40v568q0 5 40 40zM160 800h472q5 0 80 -80v-4q0 -5 -80 -80h-472
q-5 0 -80 80v4q0 5 80 80zM40 696q5 0 120 -120v-456q0 -5 -120 -120q-5 0 -40 40v616q0 5 40 40zM764 696q5 0 40 -40v-616q0 -5 -40 -40q-5 0 -120 120v456q0 5 120 120zM860 1428h568q5 0 40 -40q0 -5 -120 -120h-408q-5 0 -120 120q0 5 40 40zM900 800h472q5 0 80 -80
v-4q0 -5 -80 -80h-472q-5 0 -80 80v4q0 5 80 80zM936 160h408q5 0 120 -120q0 -5 -40 -40h-568q-5 0 -40 40q0 5 120 120z" />
    <glyph glyph-name="Ccedilla" unicode="&#xc7;" horiz-adv-x="1399" 
 />
    <glyph glyph-name="Egrave" unicode="&#xc8;" 
d="M120 1428h568q5 0 40 -40q0 -5 -120 -120h-408q-5 0 -120 120q0 5 40 40zM40 1384q5 0 120 -120v-408q0 -5 -120 -120q-5 0 -40 40v568q0 5 40 40zM160 800h472q5 0 80 -80v-4q0 -5 -80 -80h-472q-5 0 -80 80v4q0 5 80 80zM40 696q5 0 120 -120v-408q0 -5 -120 -120
q-5 0 -40 40v568q0 5 40 40zM196 160h408q5 0 120 -120q0 -5 -40 -40h-568q-5 0 -40 40q0 5 120 120zM348 1907q25 0 104 -152q-34 -160 -48 -160h-8q-14 0 -36 4q-17 14 -172 288q7 43 16 56z" />
    <glyph glyph-name="Eacute" unicode="&#xc9;" 
d="M120 1428h568q5 0 40 -40q0 -5 -120 -120h-408q-5 0 -120 120q0 5 40 40zM40 1384q5 0 120 -120v-408q0 -5 -120 -120q-5 0 -40 40v568q0 5 40 40zM160 800h472q5 0 80 -80v-4q0 -5 -80 -80h-472q-5 0 -80 80v4q0 5 80 80zM40 696q5 0 120 -120v-408q0 -5 -120 -120
q-5 0 -40 40v568q0 5 40 40zM196 160h408q5 0 120 -120q0 -5 -40 -40h-568q-5 0 -40 40q0 5 120 120zM534 1943q9 -13 16 -56q-155 -274 -172 -288q-22 -4 -36 -4h-8q-14 0 -48 160q79 152 104 152z" />
    <glyph glyph-name="Ecircumflex" unicode="&#xca;" 
d="M120 1428h568q5 0 40 -40q0 -5 -120 -120h-408q-5 0 -120 120q0 5 40 40zM40 1384q5 0 120 -120v-408q0 -5 -120 -120q-5 0 -40 40v568q0 5 40 40zM160 800h472q5 0 80 -80v-4q0 -5 -80 -80h-472q-5 0 -80 80v4q0 5 80 80zM40 696q5 0 120 -120v-408q0 -5 -120 -120
q-5 0 -40 40v568q0 5 40 40zM196 160h408q5 0 120 -120q0 -5 -40 -40h-568q-5 0 -40 40q0 5 120 120zM348 1933q9 -13 16 -56q-155 -274 -172 -288q-22 -4 -36 -4h-8q-14 0 -48 160q79 152 104 152zM524 1893q25 0 104 -152q-34 -160 -48 -160h-8q-14 0 -36 4
q-17 14 -172 288q7 43 16 56z" />
    <glyph glyph-name="Edieresis" unicode="&#xcb;" 
d="M89 1428h568q5 0 40 -40q0 -5 -120 -120h-408q-5 0 -120 120q0 5 40 40zM9 1384q5 0 120 -120v-408q0 -5 -120 -120q-5 0 -40 40v568q0 5 40 40zM129 800h472q5 0 80 -80v-4q0 -5 -80 -80h-472q-5 0 -80 80v4q0 5 80 80zM9 696q5 0 120 -120v-408q0 -5 -120 -120
q-5 0 -40 40v568q0 5 40 40zM165 160h408q5 0 120 -120q0 -5 -40 -40h-568q-5 0 -40 40q0 5 120 120zM74 1789h8q6 0 96 -96v-8q0 -6 -96 -96h-8q-6 0 -96 96v8q0 6 96 96zM664 1785h8q6 0 96 -96v-8q0 -6 -96 -96h-8q-6 0 -96 96v8q0 6 96 96z" />
    <glyph glyph-name="Igrave" unicode="&#xcc;" horiz-adv-x="279" 
d="M40 1428q5 0 120 -120v-456q0 -5 -120 -120q-5 0 -40 40v616q0 5 40 40zM120 696q5 0 40 -40v-616q0 -5 -40 -40q-5 0 -120 120v456q0 5 120 120zM64 1907q25 0 104 -152q-34 -160 -48 -160h-8q-14 0 -36 4q-17 14 -172 288q7 43 16 56z" />
    <glyph glyph-name="Iacute" unicode="&#xcd;" horiz-adv-x="279" 
d="M32 1428q5 0 120 -120v-456q0 -5 -120 -120q-5 0 -40 40v616q0 5 40 40zM112 696q5 0 40 -40v-616q0 -5 -40 -40q-5 0 -120 120v456q0 5 120 120zM242 1943q9 -13 16 -56q-155 -274 -172 -288q-22 -4 -36 -4h-8q-14 0 -48 160q79 152 104 152z" />
    <glyph glyph-name="Icircumflex" unicode="&#xce;" horiz-adv-x="279" 
d="M40 1428q5 0 120 -120v-456q0 -5 -120 -120q-5 0 -40 40v616q0 5 40 40zM120 696q5 0 40 -40v-616q0 -5 -40 -40q-5 0 -120 120v456q0 5 120 120zM64 1933q9 -13 16 -56q-155 -274 -172 -288q-22 -4 -36 -4h-8q-14 0 -48 160q79 152 104 152zM240 1893q25 0 104 -152
q-34 -160 -48 -160h-8q-14 0 -36 4q-17 14 -172 288q7 43 16 56z" />
    <glyph glyph-name="Idieresis" unicode="&#xcf;" horiz-adv-x="279" 
d="M0 1428q5 0 120 -120v-456q0 -5 -120 -120q-5 0 -40 40v616q0 5 40 40zM80 696q5 0 40 -40v-616q0 -5 -40 -40q-5 0 -120 120v456q0 5 120 120zM-219 1789h8q6 0 96 -96v-8q0 -6 -96 -96h-8q-6 0 -96 96v8q0 6 96 96zM371 1785h8q6 0 96 -96v-8q0 -6 -96 -96h-8
q-6 0 -96 96v8q0 6 96 96z" />
    <glyph glyph-name="Eth" unicode="&#xd0;" horiz-adv-x="1518" 
 />
    <glyph glyph-name="Ntilde" unicode="&#xd1;" 
d="M40 1428q5 0 120 -120v-456q0 -5 -120 -120q-5 0 -40 40v616q0 5 40 40zM764 1428q5 0 40 -40v-616q0 -5 -40 -40q-5 0 -120 120v456q0 5 120 120zM204 1264h48q77 -64 264 -260q11 0 84 -80v-160q0 -8 -8 -8h-48q-4 0 -4 4l-8 -4q-171 180 -336 340v160q1 8 8 8zM40 696
q5 0 120 -120v-456q0 -5 -120 -120q-5 0 -40 40v616q0 5 40 40zM764 696q5 0 40 -40v-616q0 -5 -40 -40q-5 0 -120 120v456q0 5 120 120zM230 1945q9 -13 16 -56q-155 -274 -172 -288q-22 -4 -36 -4h-8q-14 0 -48 160q79 152 104 152zM286 1945q168 -40 168 -56
q76 -131 76 -136q-35 -156 -48 -156h-8q-47 0 -60 32q-148 256 -148 268q10 48 20 48zM806 1945q9 -13 16 -56q-155 -274 -172 -288q-22 -4 -36 -4h-8q-14 0 -48 160q79 152 104 152z" />
    <glyph glyph-name="Ograve" unicode="&#xd2;" 
d="M120 1428h568q5 0 40 -40q0 -5 -120 -120h-408q-5 0 -120 120q0 5 40 40zM764 1388q5 0 40 -40v-568q0 -5 -40 -40q-5 0 -120 120v408q0 5 120 120zM40 1384q5 0 120 -120v-408q0 -5 -120 -120q-5 0 -40 40v568q0 5 40 40zM40 696q5 0 120 -120v-408q0 -5 -120 -120
q-5 0 -40 40v568q0 5 40 40zM764 692q5 0 40 -40v-568q0 -5 -40 -40q-5 0 -120 120v408q0 5 120 120zM196 160h408q5 0 120 -120q0 -5 -40 -40h-568q-5 0 -40 40q0 5 120 120zM386 1907q25 0 104 -152q-34 -160 -48 -160h-8q-14 0 -36 4q-17 14 -172 288q7 43 16 56z" />
    <glyph glyph-name="Oacute" unicode="&#xd3;" 
d="M120 1428h568q5 0 40 -40q0 -5 -120 -120h-408q-5 0 -120 120q0 5 40 40zM764 1388q5 0 40 -40v-568q0 -5 -40 -40q-5 0 -120 120v408q0 5 120 120zM40 1384q5 0 120 -120v-408q0 -5 -120 -120q-5 0 -40 40v568q0 5 40 40zM40 696q5 0 120 -120v-408q0 -5 -120 -120
q-5 0 -40 40v568q0 5 40 40zM764 692q5 0 40 -40v-568q0 -5 -40 -40q-5 0 -120 120v408q0 5 120 120zM196 160h408q5 0 120 -120q0 -5 -40 -40h-568q-5 0 -40 40q0 5 120 120zM572 1943q9 -13 16 -56q-155 -274 -172 -288q-22 -4 -36 -4h-8q-14 0 -48 160q79 152 104 152z
" />
    <glyph glyph-name="Ocircumflex" unicode="&#xd4;" 
d="M120 1428h568q5 0 40 -40q0 -5 -120 -120h-408q-5 0 -120 120q0 5 40 40zM764 1388q5 0 40 -40v-568q0 -5 -40 -40q-5 0 -120 120v408q0 5 120 120zM40 1384q5 0 120 -120v-408q0 -5 -120 -120q-5 0 -40 40v568q0 5 40 40zM40 696q5 0 120 -120v-408q0 -5 -120 -120
q-5 0 -40 40v568q0 5 40 40zM764 692q5 0 40 -40v-568q0 -5 -40 -40q-5 0 -120 120v408q0 5 120 120zM196 160h408q5 0 120 -120q0 -5 -40 -40h-568q-5 0 -40 40q0 5 120 120zM386 1933q9 -13 16 -56q-155 -274 -172 -288q-22 -4 -36 -4h-8q-14 0 -48 160q79 152 104 152z
M562 1893q25 0 104 -152q-34 -160 -48 -160h-8q-14 0 -36 4q-17 14 -172 288q7 43 16 56z" />
    <glyph glyph-name="Otilde" unicode="&#xd5;" 
d="M120 1428h568q5 0 40 -40q0 -5 -120 -120h-408q-5 0 -120 120q0 5 40 40zM764 1388q5 0 40 -40v-568q0 -5 -40 -40q-5 0 -120 120v408q0 5 120 120zM40 1384q5 0 120 -120v-408q0 -5 -120 -120q-5 0 -40 40v568q0 5 40 40zM40 696q5 0 120 -120v-408q0 -5 -120 -120
q-5 0 -40 40v568q0 5 40 40zM764 692q5 0 40 -40v-568q0 -5 -40 -40q-5 0 -120 120v408q0 5 120 120zM196 160h408q5 0 120 -120q0 -5 -40 -40h-568q-5 0 -40 40q0 5 120 120zM230 1945q9 -13 16 -56q-155 -274 -172 -288q-22 -4 -36 -4h-8q-14 0 -48 160q79 152 104 152z
M286 1945q168 -40 168 -56q76 -131 76 -136q-35 -156 -48 -156h-8q-47 0 -60 32q-148 256 -148 268q10 48 20 48zM806 1945q9 -13 16 -56q-155 -274 -172 -288q-22 -4 -36 -4h-8q-14 0 -48 160q79 152 104 152z" />
    <glyph glyph-name="Odieresis" unicode="&#xd6;" 
d="M120 1428h568q5 0 40 -40q0 -5 -120 -120h-408q-5 0 -120 120q0 5 40 40zM764 1388q5 0 40 -40v-568q0 -5 -40 -40q-5 0 -120 120v408q0 5 120 120zM40 1384q5 0 120 -120v-408q0 -5 -120 -120q-5 0 -40 40v568q0 5 40 40zM40 696q5 0 120 -120v-408q0 -5 -120 -120
q-5 0 -40 40v568q0 5 40 40zM764 692q5 0 40 -40v-568q0 -5 -40 -40q-5 0 -120 120v408q0 5 120 120zM196 160h408q5 0 120 -120q0 -5 -40 -40h-568q-5 0 -40 40q0 5 120 120zM143 1789h8q6 0 96 -96v-8q0 -6 -96 -96h-8q-6 0 -96 96v8q0 6 96 96zM733 1785h8q6 0 96 -96v-8
q0 -6 -96 -96h-8q-6 0 -96 96v8q0 6 96 96z" />
    <glyph glyph-name="multiply" unicode="&#xd7;" horiz-adv-x="1014" 
 />
    <glyph glyph-name="Oslash" unicode="&#xd8;" horiz-adv-x="1614" 
 />
    <glyph glyph-name="Ugrave" unicode="&#xd9;" 
d="M40 1428q5 0 120 -120v-456q0 -5 -120 -120q-5 0 -40 40v616q0 5 40 40zM764 1428q5 0 40 -40v-616q0 -5 -40 -40q-5 0 -120 120v456q0 5 120 120zM40 692q5 0 120 -120v-408q0 -5 -120 -120q-5 0 -40 40v568q0 5 40 40zM764 688q5 0 40 -40v-568q0 -5 -40 -40
q-5 0 -120 120v408q0 5 120 120zM200 160h408q5 0 120 -120q0 -5 -40 -40h-568q-5 0 -40 40q0 5 120 120zM386 1907q25 0 104 -152q-34 -160 -48 -160h-8q-14 0 -36 4q-17 14 -172 288q7 43 16 56z" />
    <glyph glyph-name="Uacute" unicode="&#xda;" 
d="M40 1428q5 0 120 -120v-456q0 -5 -120 -120q-5 0 -40 40v616q0 5 40 40zM764 1428q5 0 40 -40v-616q0 -5 -40 -40q-5 0 -120 120v456q0 5 120 120zM40 692q5 0 120 -120v-408q0 -5 -120 -120q-5 0 -40 40v568q0 5 40 40zM764 688q5 0 40 -40v-568q0 -5 -40 -40
q-5 0 -120 120v408q0 5 120 120zM200 160h408q5 0 120 -120q0 -5 -40 -40h-568q-5 0 -40 40q0 5 120 120zM572 1943q9 -13 16 -56q-155 -274 -172 -288q-22 -4 -36 -4h-8q-14 0 -48 160q79 152 104 152z" />
    <glyph glyph-name="Ucircumflex" unicode="&#xdb;" 
d="M40 1428q5 0 120 -120v-456q0 -5 -120 -120q-5 0 -40 40v616q0 5 40 40zM764 1428q5 0 40 -40v-616q0 -5 -40 -40q-5 0 -120 120v456q0 5 120 120zM40 692q5 0 120 -120v-408q0 -5 -120 -120q-5 0 -40 40v568q0 5 40 40zM764 688q5 0 40 -40v-568q0 -5 -40 -40
q-5 0 -120 120v408q0 5 120 120zM200 160h408q5 0 120 -120q0 -5 -40 -40h-568q-5 0 -40 40q0 5 120 120zM386 1933q9 -13 16 -56q-155 -274 -172 -288q-22 -4 -36 -4h-8q-14 0 -48 160q79 152 104 152zM562 1893q25 0 104 -152q-34 -160 -48 -160h-8q-14 0 -36 4
q-17 14 -172 288q7 43 16 56z" />
    <glyph glyph-name="Udieresis" unicode="&#xdc;" 
d="M40 1428q5 0 120 -120v-456q0 -5 -120 -120q-5 0 -40 40v616q0 5 40 40zM764 1428q5 0 40 -40v-616q0 -5 -40 -40q-5 0 -120 120v456q0 5 120 120zM40 692q5 0 120 -120v-408q0 -5 -120 -120q-5 0 -40 40v568q0 5 40 40zM764 688q5 0 40 -40v-568q0 -5 -40 -40
q-5 0 -120 120v408q0 5 120 120zM200 160h408q5 0 120 -120q0 -5 -40 -40h-568q-5 0 -40 40q0 5 120 120zM143 1789h8q6 0 96 -96v-8q0 -6 -96 -96h-8q-6 0 -96 96v8q0 6 96 96zM733 1785h8q6 0 96 -96v-8q0 -6 -96 -96h-8q-6 0 -96 96v8q0 6 96 96z" />
    <glyph glyph-name="Yacute" unicode="&#xdd;" 
 />
    <glyph glyph-name="Thorn" unicode="&#xde;" horiz-adv-x="1120" 
 />
    <glyph glyph-name="germandbls" unicode="&#xdf;" horiz-adv-x="1251" 
 />
    <glyph glyph-name="agrave" unicode="&#xe0;" 
d="M120 1428h568q5 0 40 -40q0 -5 -120 -120h-408q-5 0 -120 120q0 5 40 40zM764 1388q5 0 40 -40v-568q0 -5 -40 -40q-5 0 -120 120v408q0 5 120 120zM40 1384q5 0 120 -120v-408q0 -5 -120 -120q-5 0 -40 40v568q0 5 40 40zM160 800h472q5 0 80 -80v-4q0 -5 -80 -80h-472
q-5 0 -80 80v4q0 5 80 80zM40 696q5 0 120 -120v-456q0 -5 -120 -120q-5 0 -40 40v616q0 5 40 40zM764 696q5 0 40 -40v-616q0 -5 -40 -40q-5 0 -120 120v456q0 5 120 120zM386 1907q25 0 104 -152q-34 -160 -48 -160h-8q-14 0 -36 4q-17 14 -172 288q7 43 16 56z" />
    <glyph glyph-name="aacute" unicode="&#xe1;" 
d="M120 1428h568q5 0 40 -40q0 -5 -120 -120h-408q-5 0 -120 120q0 5 40 40zM764 1388q5 0 40 -40v-568q0 -5 -40 -40q-5 0 -120 120v408q0 5 120 120zM40 1384q5 0 120 -120v-408q0 -5 -120 -120q-5 0 -40 40v568q0 5 40 40zM160 800h472q5 0 80 -80v-4q0 -5 -80 -80h-472
q-5 0 -80 80v4q0 5 80 80zM40 696q5 0 120 -120v-456q0 -5 -120 -120q-5 0 -40 40v616q0 5 40 40zM764 696q5 0 40 -40v-616q0 -5 -40 -40q-5 0 -120 120v456q0 5 120 120zM572 1943q9 -13 16 -56q-155 -274 -172 -288q-22 -4 -36 -4h-8q-14 0 -48 160q79 152 104 152z" />
    <glyph glyph-name="acircumflex" unicode="&#xe2;" 
d="M120 1428h568q5 0 40 -40q0 -5 -120 -120h-408q-5 0 -120 120q0 5 40 40zM764 1388q5 0 40 -40v-568q0 -5 -40 -40q-5 0 -120 120v408q0 5 120 120zM40 1384q5 0 120 -120v-408q0 -5 -120 -120q-5 0 -40 40v568q0 5 40 40zM160 800h472q5 0 80 -80v-4q0 -5 -80 -80h-472
q-5 0 -80 80v4q0 5 80 80zM40 696q5 0 120 -120v-456q0 -5 -120 -120q-5 0 -40 40v616q0 5 40 40zM764 696q5 0 40 -40v-616q0 -5 -40 -40q-5 0 -120 120v456q0 5 120 120zM386 1933q9 -13 16 -56q-155 -274 -172 -288q-22 -4 -36 -4h-8q-14 0 -48 160q79 152 104 152z
M562 1893q25 0 104 -152q-34 -160 -48 -160h-8q-14 0 -36 4q-17 14 -172 288q7 43 16 56z" />
    <glyph glyph-name="atilde" unicode="&#xe3;" 
d="M120 1428h568q5 0 40 -40q0 -5 -120 -120h-408q-5 0 -120 120q0 5 40 40zM764 1388q5 0 40 -40v-568q0 -5 -40 -40q-5 0 -120 120v408q0 5 120 120zM40 1384q5 0 120 -120v-408q0 -5 -120 -120q-5 0 -40 40v568q0 5 40 40zM160 800h472q5 0 80 -80v-4q0 -5 -80 -80h-472
q-5 0 -80 80v4q0 5 80 80zM40 696q5 0 120 -120v-456q0 -5 -120 -120q-5 0 -40 40v616q0 5 40 40zM764 696q5 0 40 -40v-616q0 -5 -40 -40q-5 0 -120 120v456q0 5 120 120zM230 1945q9 -13 16 -56q-155 -274 -172 -288q-22 -4 -36 -4h-8q-14 0 -48 160q79 152 104 152z
M286 1945q168 -40 168 -56q76 -131 76 -136q-35 -156 -48 -156h-8q-47 0 -60 32q-148 256 -148 268q10 48 20 48zM806 1945q9 -13 16 -56q-155 -274 -172 -288q-22 -4 -36 -4h-8q-14 0 -48 160q79 152 104 152z" />
    <glyph glyph-name="adieresis" unicode="&#xe4;" 
d="M120 1428h568q5 0 40 -40q0 -5 -120 -120h-408q-5 0 -120 120q0 5 40 40zM764 1388q5 0 40 -40v-568q0 -5 -40 -40q-5 0 -120 120v408q0 5 120 120zM40 1384q5 0 120 -120v-408q0 -5 -120 -120q-5 0 -40 40v568q0 5 40 40zM160 800h472q5 0 80 -80v-4q0 -5 -80 -80h-472
q-5 0 -80 80v4q0 5 80 80zM40 696q5 0 120 -120v-456q0 -5 -120 -120q-5 0 -40 40v616q0 5 40 40zM764 696q5 0 40 -40v-616q0 -5 -40 -40q-5 0 -120 120v456q0 5 120 120zM143 1789h8q6 0 96 -96v-8q0 -6 -96 -96h-8q-6 0 -96 96v8q0 6 96 96zM733 1785h8q6 0 96 -96v-8
q0 -6 -96 -96h-8q-6 0 -96 96v8q0 6 96 96z" />
    <glyph glyph-name="aring" unicode="&#xe5;" 
d="M120 1428h568q5 0 40 -40q0 -5 -120 -120h-408q-5 0 -120 120q0 5 40 40zM764 1388q5 0 40 -40v-568q0 -5 -40 -40q-5 0 -120 120v408q0 5 120 120zM40 1384q5 0 120 -120v-408q0 -5 -120 -120q-5 0 -40 40v568q0 5 40 40zM160 800h472q5 0 80 -80v-4q0 -5 -80 -80h-472
q-5 0 -80 80v4q0 5 80 80zM40 696q5 0 120 -120v-456q0 -5 -120 -120q-5 0 -40 40v616q0 5 40 40zM764 696q5 0 40 -40v-616q0 -5 -40 -40q-5 0 -120 120v456q0 5 120 120zM398 1795h8q6 0 96 -96v-8q0 -6 -96 -96h-8q-6 0 -96 96v8q0 6 96 96z" />
    <glyph glyph-name="ae" unicode="&#xe6;" horiz-adv-x="1601" 
d="M120 1428h568q5 0 40 -40q0 -5 -120 -120h-408q-5 0 -120 120q0 5 40 40zM764 1388q5 0 40 -40v-568q0 -5 -40 -40q-5 0 -120 120v408q0 5 120 120zM40 1384q5 0 120 -120v-408q0 -5 -120 -120q-5 0 -40 40v568q0 5 40 40zM160 800h472q5 0 80 -80v-4q0 -5 -80 -80h-472
q-5 0 -80 80v4q0 5 80 80zM40 696q5 0 120 -120v-456q0 -5 -120 -120q-5 0 -40 40v616q0 5 40 40zM764 696q5 0 40 -40v-616q0 -5 -40 -40q-5 0 -120 120v456q0 5 120 120zM860 1428h568q5 0 40 -40q0 -5 -120 -120h-408q-5 0 -120 120q0 5 40 40zM900 800h472q5 0 80 -80
v-4q0 -5 -80 -80h-472q-5 0 -80 80v4q0 5 80 80zM936 160h408q5 0 120 -120q0 -5 -40 -40h-568q-5 0 -40 40q0 5 120 120z" />
    <glyph glyph-name="ccedilla" unicode="&#xe7;" 
 />
    <glyph glyph-name="egrave" unicode="&#xe8;" 
d="M120 1428h568q5 0 40 -40q0 -5 -120 -120h-408q-5 0 -120 120q0 5 40 40zM40 1384q5 0 120 -120v-408q0 -5 -120 -120q-5 0 -40 40v568q0 5 40 40zM160 800h472q5 0 80 -80v-4q0 -5 -80 -80h-472q-5 0 -80 80v4q0 5 80 80zM40 696q5 0 120 -120v-408q0 -5 -120 -120
q-5 0 -40 40v568q0 5 40 40zM196 160h408q5 0 120 -120q0 -5 -40 -40h-568q-5 0 -40 40q0 5 120 120zM348 1907q25 0 104 -152q-34 -160 -48 -160h-8q-14 0 -36 4q-17 14 -172 288q7 43 16 56z" />
    <glyph glyph-name="eacute" unicode="&#xe9;" 
d="M120 1428h568q5 0 40 -40q0 -5 -120 -120h-408q-5 0 -120 120q0 5 40 40zM40 1384q5 0 120 -120v-408q0 -5 -120 -120q-5 0 -40 40v568q0 5 40 40zM160 800h472q5 0 80 -80v-4q0 -5 -80 -80h-472q-5 0 -80 80v4q0 5 80 80zM40 696q5 0 120 -120v-408q0 -5 -120 -120
q-5 0 -40 40v568q0 5 40 40zM196 160h408q5 0 120 -120q0 -5 -40 -40h-568q-5 0 -40 40q0 5 120 120zM534 1943q9 -13 16 -56q-155 -274 -172 -288q-22 -4 -36 -4h-8q-14 0 -48 160q79 152 104 152z" />
    <glyph glyph-name="ecircumflex" unicode="&#xea;" 
d="M120 1428h568q5 0 40 -40q0 -5 -120 -120h-408q-5 0 -120 120q0 5 40 40zM40 1384q5 0 120 -120v-408q0 -5 -120 -120q-5 0 -40 40v568q0 5 40 40zM160 800h472q5 0 80 -80v-4q0 -5 -80 -80h-472q-5 0 -80 80v4q0 5 80 80zM40 696q5 0 120 -120v-408q0 -5 -120 -120
q-5 0 -40 40v568q0 5 40 40zM196 160h408q5 0 120 -120q0 -5 -40 -40h-568q-5 0 -40 40q0 5 120 120zM348 1933q9 -13 16 -56q-155 -274 -172 -288q-22 -4 -36 -4h-8q-14 0 -48 160q79 152 104 152zM524 1893q25 0 104 -152q-34 -160 -48 -160h-8q-14 0 -36 4
q-17 14 -172 288q7 43 16 56z" />
    <glyph glyph-name="edieresis" unicode="&#xeb;" 
d="M89 1428h568q5 0 40 -40q0 -5 -120 -120h-408q-5 0 -120 120q0 5 40 40zM9 1384q5 0 120 -120v-408q0 -5 -120 -120q-5 0 -40 40v568q0 5 40 40zM129 800h472q5 0 80 -80v-4q0 -5 -80 -80h-472q-5 0 -80 80v4q0 5 80 80zM9 696q5 0 120 -120v-408q0 -5 -120 -120
q-5 0 -40 40v568q0 5 40 40zM165 160h408q5 0 120 -120q0 -5 -40 -40h-568q-5 0 -40 40q0 5 120 120zM74 1789h8q6 0 96 -96v-8q0 -6 -96 -96h-8q-6 0 -96 96v8q0 6 96 96zM664 1785h8q6 0 96 -96v-8q0 -6 -96 -96h-8q-6 0 -96 96v8q0 6 96 96z" />
    <glyph glyph-name="igrave" unicode="&#xec;" horiz-adv-x="279" 
d="M40 1428q5 0 120 -120v-456q0 -5 -120 -120q-5 0 -40 40v616q0 5 40 40zM120 696q5 0 40 -40v-616q0 -5 -40 -40q-5 0 -120 120v456q0 5 120 120zM64 1907q25 0 104 -152q-34 -160 -48 -160h-8q-14 0 -36 4q-17 14 -172 288q7 43 16 56z" />
    <glyph glyph-name="iacute" unicode="&#xed;" horiz-adv-x="279" 
d="M32 1428q5 0 120 -120v-456q0 -5 -120 -120q-5 0 -40 40v616q0 5 40 40zM112 696q5 0 40 -40v-616q0 -5 -40 -40q-5 0 -120 120v456q0 5 120 120zM242 1943q9 -13 16 -56q-155 -274 -172 -288q-22 -4 -36 -4h-8q-14 0 -48 160q79 152 104 152z" />
    <glyph glyph-name="icircumflex" unicode="&#xee;" horiz-adv-x="279" 
d="M40 1428q5 0 120 -120v-456q0 -5 -120 -120q-5 0 -40 40v616q0 5 40 40zM120 696q5 0 40 -40v-616q0 -5 -40 -40q-5 0 -120 120v456q0 5 120 120zM64 1933q9 -13 16 -56q-155 -274 -172 -288q-22 -4 -36 -4h-8q-14 0 -48 160q79 152 104 152zM240 1893q25 0 104 -152
q-34 -160 -48 -160h-8q-14 0 -36 4q-17 14 -172 288q7 43 16 56z" />
    <glyph glyph-name="idieresis" unicode="&#xef;" horiz-adv-x="279" 
d="M0 1428q5 0 120 -120v-456q0 -5 -120 -120q-5 0 -40 40v616q0 5 40 40zM80 696q5 0 40 -40v-616q0 -5 -40 -40q-5 0 -120 120v456q0 5 120 120zM-219 1789h8q6 0 96 -96v-8q0 -6 -96 -96h-8q-6 0 -96 96v8q0 6 96 96zM371 1785h8q6 0 96 -96v-8q0 -6 -96 -96h-8
q-6 0 -96 96v8q0 6 96 96z" />
    <glyph glyph-name="eth" unicode="&#xf0;" horiz-adv-x="1139" 
 />
    <glyph glyph-name="ntilde" unicode="&#xf1;" 
d="M40 1428q5 0 120 -120v-456q0 -5 -120 -120q-5 0 -40 40v616q0 5 40 40zM764 1428q5 0 40 -40v-616q0 -5 -40 -40q-5 0 -120 120v456q0 5 120 120zM204 1264h48q77 -64 264 -260q11 0 84 -80v-160q0 -8 -8 -8h-48q-4 0 -4 4l-8 -4q-171 180 -336 340v160q1 8 8 8zM40 696
q5 0 120 -120v-456q0 -5 -120 -120q-5 0 -40 40v616q0 5 40 40zM764 696q5 0 40 -40v-616q0 -5 -40 -40q-5 0 -120 120v456q0 5 120 120zM230 1945q9 -13 16 -56q-155 -274 -172 -288q-22 -4 -36 -4h-8q-14 0 -48 160q79 152 104 152zM286 1945q168 -40 168 -56
q76 -131 76 -136q-35 -156 -48 -156h-8q-47 0 -60 32q-148 256 -148 268q10 48 20 48zM806 1945q9 -13 16 -56q-155 -274 -172 -288q-22 -4 -36 -4h-8q-14 0 -48 160q79 152 104 152z" />
    <glyph glyph-name="ograve" unicode="&#xf2;" 
d="M120 1428h568q5 0 40 -40q0 -5 -120 -120h-408q-5 0 -120 120q0 5 40 40zM764 1388q5 0 40 -40v-568q0 -5 -40 -40q-5 0 -120 120v408q0 5 120 120zM40 1384q5 0 120 -120v-408q0 -5 -120 -120q-5 0 -40 40v568q0 5 40 40zM40 696q5 0 120 -120v-408q0 -5 -120 -120
q-5 0 -40 40v568q0 5 40 40zM764 692q5 0 40 -40v-568q0 -5 -40 -40q-5 0 -120 120v408q0 5 120 120zM196 160h408q5 0 120 -120q0 -5 -40 -40h-568q-5 0 -40 40q0 5 120 120zM386 1907q25 0 104 -152q-34 -160 -48 -160h-8q-14 0 -36 4q-17 14 -172 288q7 43 16 56z" />
    <glyph glyph-name="oacute" unicode="&#xf3;" 
d="M120 1428h568q5 0 40 -40q0 -5 -120 -120h-408q-5 0 -120 120q0 5 40 40zM764 1388q5 0 40 -40v-568q0 -5 -40 -40q-5 0 -120 120v408q0 5 120 120zM40 1384q5 0 120 -120v-408q0 -5 -120 -120q-5 0 -40 40v568q0 5 40 40zM40 696q5 0 120 -120v-408q0 -5 -120 -120
q-5 0 -40 40v568q0 5 40 40zM764 692q5 0 40 -40v-568q0 -5 -40 -40q-5 0 -120 120v408q0 5 120 120zM196 160h408q5 0 120 -120q0 -5 -40 -40h-568q-5 0 -40 40q0 5 120 120zM572 1943q9 -13 16 -56q-155 -274 -172 -288q-22 -4 -36 -4h-8q-14 0 -48 160q79 152 104 152z
" />
    <glyph glyph-name="ocircumflex" unicode="&#xf4;" 
d="M120 1428h568q5 0 40 -40q0 -5 -120 -120h-408q-5 0 -120 120q0 5 40 40zM764 1388q5 0 40 -40v-568q0 -5 -40 -40q-5 0 -120 120v408q0 5 120 120zM40 1384q5 0 120 -120v-408q0 -5 -120 -120q-5 0 -40 40v568q0 5 40 40zM40 696q5 0 120 -120v-408q0 -5 -120 -120
q-5 0 -40 40v568q0 5 40 40zM764 692q5 0 40 -40v-568q0 -5 -40 -40q-5 0 -120 120v408q0 5 120 120zM196 160h408q5 0 120 -120q0 -5 -40 -40h-568q-5 0 -40 40q0 5 120 120zM386 1933q9 -13 16 -56q-155 -274 -172 -288q-22 -4 -36 -4h-8q-14 0 -48 160q79 152 104 152z
M562 1893q25 0 104 -152q-34 -160 -48 -160h-8q-14 0 -36 4q-17 14 -172 288q7 43 16 56z" />
    <glyph glyph-name="otilde" unicode="&#xf5;" 
d="M120 1428h568q5 0 40 -40q0 -5 -120 -120h-408q-5 0 -120 120q0 5 40 40zM764 1388q5 0 40 -40v-568q0 -5 -40 -40q-5 0 -120 120v408q0 5 120 120zM40 1384q5 0 120 -120v-408q0 -5 -120 -120q-5 0 -40 40v568q0 5 40 40zM40 696q5 0 120 -120v-408q0 -5 -120 -120
q-5 0 -40 40v568q0 5 40 40zM764 692q5 0 40 -40v-568q0 -5 -40 -40q-5 0 -120 120v408q0 5 120 120zM196 160h408q5 0 120 -120q0 -5 -40 -40h-568q-5 0 -40 40q0 5 120 120zM230 1945q9 -13 16 -56q-155 -274 -172 -288q-22 -4 -36 -4h-8q-14 0 -48 160q79 152 104 152z
M286 1945q168 -40 168 -56q76 -131 76 -136q-35 -156 -48 -156h-8q-47 0 -60 32q-148 256 -148 268q10 48 20 48zM806 1945q9 -13 16 -56q-155 -274 -172 -288q-22 -4 -36 -4h-8q-14 0 -48 160q79 152 104 152z" />
    <glyph glyph-name="odieresis" unicode="&#xf6;" 
d="M120 1428h568q5 0 40 -40q0 -5 -120 -120h-408q-5 0 -120 120q0 5 40 40zM764 1388q5 0 40 -40v-568q0 -5 -40 -40q-5 0 -120 120v408q0 5 120 120zM40 1384q5 0 120 -120v-408q0 -5 -120 -120q-5 0 -40 40v568q0 5 40 40zM40 696q5 0 120 -120v-408q0 -5 -120 -120
q-5 0 -40 40v568q0 5 40 40zM764 692q5 0 40 -40v-568q0 -5 -40 -40q-5 0 -120 120v408q0 5 120 120zM196 160h408q5 0 120 -120q0 -5 -40 -40h-568q-5 0 -40 40q0 5 120 120zM143 1789h8q6 0 96 -96v-8q0 -6 -96 -96h-8q-6 0 -96 96v8q0 6 96 96zM733 1785h8q6 0 96 -96v-8
q0 -6 -96 -96h-8q-6 0 -96 96v8q0 6 96 96z" />
    <glyph glyph-name="divide" unicode="&#xf7;" horiz-adv-x="706" 
d="M89 974h472q5 0 80 -80v-4q0 -5 -80 -80h-472q-5 0 -80 80v4q0 5 80 80zM223 388v8q0 6 96 96h8q6 0 96 -96v-8q0 -6 -96 -96h-8q-6 0 -96 96zM227 1388v8q0 6 96 96h8q6 0 96 -96v-8q0 -6 -96 -96h-8q-6 0 -96 96z" />
    <glyph glyph-name="oslash" unicode="&#xf8;" horiz-adv-x="1010" 
 />
    <glyph glyph-name="ugrave" unicode="&#xf9;" 
d="M40 1428q5 0 120 -120v-456q0 -5 -120 -120q-5 0 -40 40v616q0 5 40 40zM764 1428q5 0 40 -40v-616q0 -5 -40 -40q-5 0 -120 120v456q0 5 120 120zM40 692q5 0 120 -120v-408q0 -5 -120 -120q-5 0 -40 40v568q0 5 40 40zM764 688q5 0 40 -40v-568q0 -5 -40 -40
q-5 0 -120 120v408q0 5 120 120zM200 160h408q5 0 120 -120q0 -5 -40 -40h-568q-5 0 -40 40q0 5 120 120zM386 1907q25 0 104 -152q-34 -160 -48 -160h-8q-14 0 -36 4q-17 14 -172 288q7 43 16 56z" />
    <glyph glyph-name="uacute" unicode="&#xfa;" 
d="M40 1428q5 0 120 -120v-456q0 -5 -120 -120q-5 0 -40 40v616q0 5 40 40zM764 1428q5 0 40 -40v-616q0 -5 -40 -40q-5 0 -120 120v456q0 5 120 120zM40 692q5 0 120 -120v-408q0 -5 -120 -120q-5 0 -40 40v568q0 5 40 40zM764 688q5 0 40 -40v-568q0 -5 -40 -40
q-5 0 -120 120v408q0 5 120 120zM200 160h408q5 0 120 -120q0 -5 -40 -40h-568q-5 0 -40 40q0 5 120 120zM572 1943q9 -13 16 -56q-155 -274 -172 -288q-22 -4 -36 -4h-8q-14 0 -48 160q79 152 104 152z" />
    <glyph glyph-name="ucircumflex" unicode="&#xfb;" 
d="M40 1428q5 0 120 -120v-456q0 -5 -120 -120q-5 0 -40 40v616q0 5 40 40zM764 1428q5 0 40 -40v-616q0 -5 -40 -40q-5 0 -120 120v456q0 5 120 120zM40 692q5 0 120 -120v-408q0 -5 -120 -120q-5 0 -40 40v568q0 5 40 40zM764 688q5 0 40 -40v-568q0 -5 -40 -40
q-5 0 -120 120v408q0 5 120 120zM200 160h408q5 0 120 -120q0 -5 -40 -40h-568q-5 0 -40 40q0 5 120 120zM386 1933q9 -13 16 -56q-155 -274 -172 -288q-22 -4 -36 -4h-8q-14 0 -48 160q79 152 104 152zM562 1893q25 0 104 -152q-34 -160 -48 -160h-8q-14 0 -36 4
q-17 14 -172 288q7 43 16 56z" />
    <glyph glyph-name="udieresis" unicode="&#xfc;" 
d="M40 1428q5 0 120 -120v-456q0 -5 -120 -120q-5 0 -40 40v616q0 5 40 40zM764 1428q5 0 40 -40v-616q0 -5 -40 -40q-5 0 -120 120v456q0 5 120 120zM40 692q5 0 120 -120v-408q0 -5 -120 -120q-5 0 -40 40v568q0 5 40 40zM764 688q5 0 40 -40v-568q0 -5 -40 -40
q-5 0 -120 120v408q0 5 120 120zM200 160h408q5 0 120 -120q0 -5 -40 -40h-568q-5 0 -40 40q0 5 120 120zM143 1789h8q6 0 96 -96v-8q0 -6 -96 -96h-8q-6 0 -96 96v8q0 6 96 96zM733 1785h8q6 0 96 -96v-8q0 -6 -96 -96h-8q-6 0 -96 96v8q0 6 96 96z" />
    <glyph glyph-name="yacute" unicode="&#xfd;" horiz-adv-x="868" 
 />
    <glyph glyph-name="thorn" unicode="&#xfe;" horiz-adv-x="1010" 
 />
    <glyph glyph-name="ydieresis" unicode="&#xff;" horiz-adv-x="868" 
 />
    <glyph glyph-name="dotlessi" unicode="&#x131;" horiz-adv-x="514" 
 />
    <glyph glyph-name="circumflex" unicode="&#x2c6;" horiz-adv-x="1024" 
d="M444 1523q9 -13 16 -56q-155 -274 -172 -288q-22 -4 -36 -4h-8q-14 0 -48 160q79 152 104 152zM620 1483q25 0 104 -152q-34 -160 -48 -160h-8q-14 0 -36 4q-17 14 -172 288q7 43 16 56z" />
    <glyph glyph-name="caron" unicode="&#x2c7;" horiz-adv-x="1024" 
 />
    <glyph glyph-name="uni02C9" unicode="&#x2c9;" horiz-adv-x="1024" 
 />
    <glyph glyph-name="breve" unicode="&#x2d8;" horiz-adv-x="1024" 
 />
    <glyph glyph-name="dotaccent" unicode="&#x2d9;" horiz-adv-x="1024" 
 />
    <glyph glyph-name="ring" unicode="&#x2da;" horiz-adv-x="1024" 
d="M470 1385h8q6 0 96 -96v-8q0 -6 -96 -96h-8q-6 0 -96 96v8q0 6 96 96z" />
    <glyph glyph-name="ogonek" unicode="&#x2db;" horiz-adv-x="1024" 
 />
    <glyph glyph-name="tilde" unicode="&#x2dc;" horiz-adv-x="1024" 
d="M317 1535q9 -13 16 -56q-155 -274 -172 -288q-22 -4 -36 -4h-8q-14 0 -48 160q79 152 104 152zM373 1535q168 -40 168 -56q76 -131 76 -136q-35 -156 -48 -156h-8q-47 0 -60 32q-148 256 -148 268q10 48 20 48zM893 1535q9 -13 16 -56q-155 -274 -172 -288q-22 -4 -36 -4
h-8q-14 0 -48 160q79 152 104 152z" />
    <glyph glyph-name="hungarumlaut" unicode="&#x2dd;" horiz-adv-x="1024" 
 />
    <glyph glyph-name="endash" unicode="&#x2013;" horiz-adv-x="646" 
d="M89 164h472q5 0 80 -80v-4q0 -5 -80 -80h-472q-5 0 -80 80v4q0 5 80 80z" />
    <glyph glyph-name="emdash" unicode="&#x2014;" horiz-adv-x="646" 
d="M89 164h472q5 0 80 -80v-4q0 -5 -80 -80h-472q-5 0 -80 80v4q0 5 80 80z" />
    <glyph glyph-name="quoteleft" unicode="&#x2018;" horiz-adv-x="557" 
 />
    <glyph glyph-name="quoteright" unicode="&#x2019;" horiz-adv-x="557" 
 />
    <glyph glyph-name="quotesinglbase" unicode="&#x201a;" horiz-adv-x="557" 
 />
    <glyph glyph-name="quotedblleft" unicode="&#x201c;" horiz-adv-x="406" 
d="M20 2115q5 0 60 -60v-212q0 -5 -60 -60q-5 0 -20 20v292q0 5 20 20zM221 2115q5 0 60 -60v-212q0 -5 -60 -60q-5 0 -20 20v292q0 5 20 20z" />
    <glyph glyph-name="quotedblright" unicode="&#x201d;" horiz-adv-x="406" 
d="M281 2095v-292q-15 -20 -20 -20q-60 55 -60 60v212q55 60 60 60q20 -15 20 -20zM80 2095v-292q-15 -20 -20 -20q-60 55 -60 60v212q55 60 60 60q20 -15 20 -20z" />
    <glyph glyph-name="quotedblbase" unicode="&#x201e;" horiz-adv-x="910" 
 />
    <glyph glyph-name="dagger" unicode="&#x2020;" horiz-adv-x="1014" 
 />
    <glyph glyph-name="daggerdbl" unicode="&#x2021;" horiz-adv-x="1014" 
 />
    <glyph glyph-name="bullet" unicode="&#x2022;" horiz-adv-x="1024" 
 />
    <glyph glyph-name="ellipsis" unicode="&#x2026;" horiz-adv-x="2048" 
 />
    <glyph glyph-name="guilsinglleft" unicode="&#x2039;" horiz-adv-x="631" 
 />
    <glyph glyph-name="guilsinglright" unicode="&#x203a;" horiz-adv-x="631" 
 />
    <glyph glyph-name="fraction" unicode="&#x2044;" horiz-adv-x="342" 
 />
    <glyph glyph-name="fraction" unicode="&#x2215;" horiz-adv-x="342" 
 />
    <glyph glyph-name="franc" unicode="&#x20a3;" horiz-adv-x="1014" 
 />
    <glyph glyph-name="lira" unicode="&#x20a4;" horiz-adv-x="1014" 
 />
    <glyph glyph-name="peseta" unicode="&#x20a7;" horiz-adv-x="2028" 
 />
    <glyph glyph-name="Euro" unicode="&#x20ac;" horiz-adv-x="1014" 
 />
    <glyph glyph-name="afii61352" unicode="&#x2116;" horiz-adv-x="2271" 
 />
    <glyph glyph-name="trademark" unicode="&#x2122;" horiz-adv-x="1497" 
 />
    <glyph glyph-name="partialdiff" unicode="&#x2202;" horiz-adv-x="1014" 
 />
    <glyph glyph-name="Delta" unicode="&#x2206;" horiz-adv-x="1081" 
 />
    <glyph glyph-name="product" unicode="&#x220f;" horiz-adv-x="1515" 
 />
    <glyph glyph-name="summation" unicode="&#x2211;" horiz-adv-x="1206" 
 />
    <glyph glyph-name="minus" unicode="&#x2212;" horiz-adv-x="656" 
d="M89 974h472q5 0 80 -80v-4q0 -5 -80 -80h-472q-5 0 -80 80v4q0 5 80 80z" />
    <glyph glyph-name="radical" unicode="&#x221a;" horiz-adv-x="1014" 
 />
    <glyph glyph-name="infinity" unicode="&#x221e;" horiz-adv-x="1014" 
 />
    <glyph glyph-name="integral" unicode="&#x222b;" horiz-adv-x="665" 
 />
    <glyph glyph-name="approxequal" unicode="&#x2248;" horiz-adv-x="1014" 
 />
    <glyph glyph-name="lessequal" unicode="&#x2264;" horiz-adv-x="1014" 
 />
    <glyph glyph-name="greaterequal" unicode="&#x2265;" horiz-adv-x="1014" 
 />
    <glyph glyph-name="uniF001" unicode="&#xf001;" horiz-adv-x="1073" 
 />
    <glyph glyph-name="uniF001" unicode="&#xfb01;" horiz-adv-x="1073" 
 />
    <glyph glyph-name="uniF002" unicode="&#xf002;" horiz-adv-x="1081" 
 />
    <glyph glyph-name="uniF002" unicode="&#xfb02;" horiz-adv-x="1081" 
 />
  </font>
</defs>
</svg>
